<?xml version="1.0" encoding="UTF-8"?>
<!DOCTYPE svg PUBLIC "-//W3C//DTD SVG 1.1//EN" "http://www.w3.org/Graphics/SVG/1.1/DTD/svg11.dtd">
<svg xmlns="http://www.w3.org/2000/svg" version="1.1" width="2222px" height="2222px" style="shape-rendering:geometricPrecision; text-rendering:geometricPrecision; image-rendering:optimizeQuality; fill-rule:evenodd; clip-rule:evenodd" xmlns:xlink="http://www.w3.org/1999/xlink">
<g><path style="opacity:0.985" fill="#00a3e0" d="M 1626.5,634.5 C 1631.3,634.121 1635.96,634.621 1640.5,636C 1642.95,638.255 1644.28,641.088 1644.5,644.5C 1638.03,662.9 1632.37,681.566 1627.5,700.5C 1627.76,702.187 1628.43,703.687 1629.5,705C 1634.6,706.049 1639.77,706.549 1645,706.5C 1657.27,706.272 1669.43,705.439 1681.5,704C 1682.67,702.833 1683.83,701.667 1685,700.5C 1692.56,681.21 1703.72,664.376 1718.5,650C 1725.21,644.645 1732.54,640.312 1740.5,637C 1745.53,635.061 1750.53,635.061 1755.5,637C 1756.96,639.077 1757.62,641.41 1757.5,644C 1752.92,660.835 1748.25,677.668 1743.5,694.5C 1743.61,695.442 1743.94,696.275 1744.5,697C 1750.59,697.384 1756.59,696.718 1762.5,695C 1774.27,692.132 1785.93,688.965 1797.5,685.5C 1802.34,685.078 1805.01,687.245 1805.5,692C 1804.17,698.312 1800.84,703.312 1795.5,707C 1779.05,718.714 1761.05,727.381 1741.5,733C 1738.9,733.883 1736.73,735.383 1735,737.5C 1724.32,781.71 1721.99,826.377 1728,871.5C 1731.29,892.057 1738.95,910.724 1751,927.5C 1767.87,946.351 1789.04,956.184 1814.5,957C 1819.71,958.211 1821.54,961.377 1820,966.5C 1819.12,969.102 1817.62,971.269 1815.5,973C 1787.1,991.034 1757.76,992.7 1727.5,978C 1709.07,966.575 1695.24,951.075 1686,931.5C 1675.61,908.595 1669.27,884.595 1667,859.5C 1665.51,840.19 1665.17,820.856 1666,801.5C 1667.43,783.052 1669.43,764.719 1672,746.5C 1670,744.941 1667.67,744.274 1665,744.5C 1650.51,745.237 1636.01,745.737 1621.5,746C 1619.67,746.5 1618.5,747.667 1618,749.5C 1608.7,803.979 1609.37,858.312 1620,912.5C 1624.91,936.638 1634.91,958.305 1650,977.5C 1662.17,991.341 1677.34,1000.17 1695.5,1004C 1701.06,1005.5 1702.89,1009 1701,1014.5C 1696.63,1021.53 1690.46,1026.36 1682.5,1029C 1654.83,1036.2 1630.16,1030.53 1608.5,1012C 1585.36,988.899 1569.52,961.399 1561,929.5C 1545.7,869.785 1544.53,809.785 1557.5,749.5C 1556.97,747.386 1555.97,745.552 1554.5,744C 1509.98,739.842 1465.32,737.342 1420.5,736.5C 1386.19,736.403 1352.19,739.57 1318.5,746C 1282.06,753.682 1249.39,769.016 1220.5,792C 1207.02,794.664 1198.86,789.164 1196,775.5C 1194.14,745.38 1206.31,722.88 1232.5,708C 1249.87,699.408 1268.2,694.074 1287.5,692C 1306.27,689.818 1325.1,688.652 1344,688.5C 1369.86,688.988 1395.7,690.155 1421.5,692C 1468.51,695.779 1515.51,699.612 1562.5,703.5C 1565.21,702.986 1567.71,701.986 1570,700.5C 1577.47,679.385 1589.31,661.218 1605.5,646C 1611.98,641.094 1618.98,637.26 1626.5,634.5 Z"/></g>
<g><path style="opacity:0.851" fill="#00a3e0" d="M 1838.5,642.5 C 1857.64,642.801 1866.47,652.467 1865,671.5C 1857.54,687.974 1845.71,692.141 1829.5,684C 1819.75,674.949 1817.92,664.449 1824,652.5C 1826.17,650.333 1828.33,648.167 1830.5,646C 1833.31,644.907 1835.98,643.74 1838.5,642.5 Z M 1853.5,679.5 C 1844.68,685.41 1836.51,684.41 1829,676.5C 1822.18,663.616 1825.35,654.116 1838.5,648C 1849.22,646.109 1856.39,650.276 1860,660.5C 1861.77,668.269 1859.61,674.603 1853.5,679.5 Z M 1838.5,656.5 C 1841.52,656.335 1844.52,656.502 1847.5,657C 1850.17,659 1850.17,661 1847.5,663C 1844.52,663.498 1841.52,663.665 1838.5,663.5C 1838.5,661.167 1838.5,658.833 1838.5,656.5 Z"/></g>
<g><path style="opacity:0.876" fill="#00a3e0" d="M 1853.5,679.5 C 1852.13,679.657 1850.79,679.49 1849.5,679C 1847.67,675.833 1845.83,672.667 1844,669.5C 1842.56,667.845 1840.72,667.178 1838.5,667.5C 1838.67,671.182 1838.5,674.848 1838,678.5C 1836.99,679.337 1835.82,679.67 1834.5,679.5C 1834.5,670.5 1834.5,661.5 1834.5,652.5C 1839.51,652.334 1844.51,652.501 1849.5,653C 1853.21,655.513 1854.38,659.013 1853,663.5C 1851.84,665.491 1850.34,667.158 1848.5,668.5C 1851.53,671.559 1853.2,675.226 1853.5,679.5 Z M 1838.5,656.5 C 1838.5,658.833 1838.5,661.167 1838.5,663.5C 1841.52,663.665 1844.52,663.498 1847.5,663C 1850.17,661 1850.17,659 1847.5,657C 1844.52,656.502 1841.52,656.335 1838.5,656.5 Z"/></g>
<g><path style="opacity:0.964" fill="#00a3e0" d="M 1065.5,654.5 C 1087.27,652.058 1107.61,656.225 1126.5,667C 1148.97,684.732 1156.47,707.565 1149,735.5C 1137.67,767.165 1116.84,790.332 1086.5,805C 1084.87,805.494 1083.2,805.66 1081.5,805.5C 1081.34,804.127 1081.51,802.793 1082,801.5C 1100.92,784.654 1114.58,764.321 1123,740.5C 1129.24,711.81 1118.74,691.977 1091.5,681C 1067.48,674.812 1044.82,678.145 1023.5,691C 1016,696.341 1008.67,701.841 1001.5,707.5C 974.046,692.477 945.713,690.644 916.5,702C 886.605,718.352 879.772,741.519 896,771.5C 913.334,789.634 934.5,800.801 959.5,805C 977.293,809.011 995.293,810.678 1013.5,810C 1035.26,802.577 1051.1,788.41 1061,767.5C 1066.2,754.155 1065.54,741.155 1059,728.5C 1050.65,718.972 1040.82,717.139 1029.5,723C 1020.8,729.034 1014.3,736.867 1010,746.5C 1009.28,747.059 1008.44,747.392 1007.5,747.5C 1002.38,743.553 997.38,739.387 992.5,735C 978.607,726.505 966.107,728.005 955,739.5C 950.418,753.093 953.918,764.259 965.5,773C 979.552,782.131 994.885,788.131 1011.5,791C 1013.33,791.928 1013.67,793.094 1012.5,794.5C 985.161,797.164 959.828,791.331 936.5,777C 924.615,768.066 919.115,756.233 920,741.5C 925.001,724.172 936.501,714.339 954.5,712C 973.506,709.837 990.173,715.003 1004.5,727.5C 1014.51,714.663 1027.17,705.496 1042.5,700C 1078.45,695.283 1094.95,711.116 1092,747.5C 1084.36,777.479 1067.19,800.313 1040.5,816C 1034.78,819.527 1028.78,822.527 1022.5,825C 980.114,829.79 940.114,822.123 902.5,802C 885.23,792.063 872.063,778.23 863,760.5C 851.738,724.524 863.238,698.691 897.5,683C 931.802,670.529 965.468,672.029 998.5,687.5C 1009.76,677.858 1022.1,669.691 1035.5,663C 1045.36,659.205 1055.36,656.371 1065.5,654.5 Z"/></g>
<g><path style="opacity:0.992" fill="#00a3e0" d="M 680.5,656.5 C 705.525,655.336 729.859,658.836 753.5,667C 804.298,690.105 822.798,728.938 809,783.5C 794.285,825.882 765.785,854.716 723.5,870C 686.611,883.277 650.945,880.61 616.5,862C 600.799,852.802 591.132,839.302 587.5,821.5C 589.943,810.423 596.943,805.423 608.5,806.5C 616.89,807.211 625.223,808.378 633.5,810C 656.076,813.238 677.409,809.571 697.5,799C 716.358,785.779 724.858,767.612 723,744.5C 719.286,733.117 711.786,725.284 700.5,721C 677.186,714.279 654.186,715.279 631.5,724C 607.314,734.25 585.647,748.25 566.5,766C 523.948,807.237 491.448,855.404 469,910.5C 426.893,1015.24 417.226,1122.9 440,1233.5C 451.528,1287.55 474.528,1335.88 509,1378.5C 568.071,1441.85 639.571,1462.01 723.5,1439C 758.65,1428.95 792.65,1415.95 825.5,1400C 855.815,1384.84 885.815,1369.18 915.5,1353C 993.83,1307.17 1071.83,1260.84 1149.5,1214C 1211.92,1177.29 1276.25,1143.96 1342.5,1114C 1383.97,1095.62 1426.64,1080.62 1470.5,1069C 1501.06,1060.98 1532.06,1058.32 1563.5,1061C 1580.11,1062.76 1595.44,1068.09 1609.5,1077C 1616.49,1081.65 1621.66,1087.82 1625,1095.5C 1626.51,1102.31 1624.01,1106.81 1617.5,1109C 1610.09,1109.43 1602.75,1108.77 1595.5,1107C 1565.53,1105.44 1536.2,1109.1 1507.5,1118C 1464.18,1130.55 1422.52,1147.22 1382.5,1168C 1327.86,1196.98 1274.52,1227.98 1222.5,1261C 1194,1279.42 1165.66,1298.08 1137.5,1317C 1057.2,1373.63 975.529,1428.29 892.5,1481C 845.44,1510.2 796.107,1535.2 744.5,1556C 697.995,1574.88 649.661,1584.71 599.5,1585.5C 508.346,1584.73 435.179,1548.39 380,1476.5C 342.798,1424.95 318.798,1367.61 308,1304.5C 288.719,1177.69 302.719,1054.69 350,935.5C 383.585,853.454 434.751,784.621 503.5,729C 547.86,694.159 597.86,671.159 653.5,660C 662.638,658.733 671.638,657.567 680.5,656.5 Z"/></g>
<g><path style="opacity:0.984" fill="#00a3e0" d="M 1845.5,704.5 C 1870.59,704.459 1890.09,714.792 1904,735.5C 1919.39,761.799 1925.06,790.132 1921,820.5C 1916.65,859.404 1898.81,890.237 1867.5,913C 1825.41,932.524 1793.57,921.691 1772,880.5C 1754.78,836.648 1757.45,793.982 1780,752.5C 1791.85,731.976 1808.69,717.143 1830.5,708C 1835.6,706.64 1840.6,705.474 1845.5,704.5 Z M 1840.5,743.5 C 1850.44,742.888 1857.94,746.888 1863,755.5C 1871.97,772.541 1876.13,790.708 1875.5,810C 1876.1,831.019 1871.6,850.852 1862,869.5C 1847.37,890.01 1833.7,889.343 1821,867.5C 1807.5,834.312 1807.16,800.978 1820,767.5C 1823.88,756.803 1830.71,748.803 1840.5,743.5 Z"/></g>
<g><path style="opacity:0.985" fill="#00a3e0" d="M 1449.5,780.5 C 1472.15,778.324 1490.99,785.658 1506,802.5C 1515.44,819.05 1518.11,836.717 1514,855.5C 1501.67,897.838 1475.17,927.671 1434.5,945C 1427.15,947.002 1419.82,949.002 1412.5,951C 1410.61,953.917 1410.11,957.084 1411,960.5C 1420.44,979.632 1435.61,986.465 1456.5,981C 1477.68,973.829 1495.68,961.829 1510.5,945C 1519.88,940.19 1525.21,943.024 1526.5,953.5C 1517.38,994.9 1492.71,1022.4 1452.5,1036C 1402.48,1043.91 1367.98,1024.41 1349,977.5C 1333.47,920.8 1343.47,869.133 1379,822.5C 1397.78,800.368 1421.28,786.368 1449.5,780.5 Z M 1445.5,822.5 C 1452.88,821.772 1458.05,824.772 1461,831.5C 1463.53,858.632 1454.69,881.465 1434.5,900C 1427.83,905.835 1420.16,909.835 1411.5,912C 1406.06,913.193 1402.89,911.027 1402,905.5C 1401.6,878.686 1409.94,855.019 1427,834.5C 1432.55,829.425 1438.72,825.425 1445.5,822.5 Z"/></g>
<g><path style="opacity:0.988" fill="#00a3e0" d="M 1263.5,814.5 C 1281.61,813.626 1294.44,821.293 1302,837.5C 1304.19,846.531 1305.36,855.698 1305.5,865C 1302.74,897.856 1302.9,930.689 1306,963.5C 1307.88,987.127 1314.21,1009.46 1325,1030.5C 1331.92,1040.75 1340.25,1049.75 1350,1057.5C 1350.67,1060.17 1350.67,1062.83 1350,1065.5C 1343.78,1071.86 1336.28,1076.03 1327.5,1078C 1291.09,1084.55 1266.26,1070.72 1253,1036.5C 1247.23,1019.3 1243.89,1001.64 1243,983.5C 1241.91,961.505 1240.91,939.505 1240,917.5C 1239.55,912.47 1238.89,907.47 1238,902.5C 1237.23,898.286 1235.39,894.619 1232.5,891.5C 1228.6,890.038 1224.93,890.538 1221.5,893C 1211.55,905.478 1205.05,919.644 1202,935.5C 1198.4,957.008 1196.4,978.674 1196,1000.5C 1193.73,1028.02 1190.07,1055.36 1185,1082.5C 1181.31,1104.38 1171.48,1122.88 1155.5,1138C 1145.06,1146.89 1133.06,1151.89 1119.5,1153C 1113.42,1151.02 1110.76,1146.85 1111.5,1140.5C 1119.84,1102.59 1125.34,1064.25 1128,1025.5C 1130.9,987.993 1127.9,950.993 1119,914.5C 1114.55,899.932 1108.22,886.265 1100,873.5C 1098.41,865.185 1100.91,858.352 1107.5,853C 1124.71,838.594 1143.71,835.594 1164.5,844C 1175.24,852.953 1182.91,864.119 1187.5,877.5C 1188.72,878.614 1190.06,878.781 1191.5,878C 1201.06,855.442 1216.06,837.442 1236.5,824C 1245.03,819.102 1254.03,815.935 1263.5,814.5 Z"/></g>
<g><path style="opacity:0.988" fill="#00a3e0" d="M 1021.5,859.5 C 1055.44,857.26 1075.61,872.926 1082,906.5C 1086.49,936.699 1077.99,962.533 1056.5,984C 1048.15,989.863 1041.65,988.363 1037,979.5C 1036.49,967.595 1032.99,956.762 1026.5,947C 1015.2,940.989 1006.7,943.822 1001,955.5C 996.955,965.6 995.122,976.1 995.5,987C 997.664,1007.49 999.831,1027.99 1002,1048.5C 1004.31,1081.23 1003.65,1113.9 1000,1146.5C 996.97,1176.2 986.97,1203.2 970,1227.5C 960.278,1239.56 948.111,1248.06 933.5,1253C 922.851,1256.03 917.185,1252.2 916.5,1241.5C 931.41,1176.75 934.577,1111.41 926,1045.5C 922.437,1003.73 906.437,967.729 878,937.5C 874.436,930.598 874.769,923.931 879,917.5C 897.347,897.829 919.181,892.662 944.5,902C 953.695,906.859 961.362,913.525 967.5,922C 968.833,922.667 970.167,922.667 971.5,922C 975.109,906.159 981.609,891.659 991,878.5C 999.305,868.999 1009.47,862.666 1021.5,859.5 Z"/></g>
<g><path style="opacity:0.991" fill="#00a3e0" d="M 740.5,917.5 C 790.671,914.671 830.171,933.671 859,974.5C 882.68,1010.54 895.346,1050.21 897,1093.5C 900.333,1171.51 876.667,1239.84 826,1298.5C 809.047,1315.9 789.547,1329.73 767.5,1340C 702.901,1362.47 650.734,1345.97 611,1290.5C 583.006,1245.19 571.006,1195.85 575,1142.5C 578.842,1078.53 601.176,1022.2 642,973.5C 668.483,943.513 701.316,924.846 740.5,917.5 Z M 739.5,992.5 C 749.08,991.894 757.746,994.394 765.5,1000C 776.398,1009.91 784.564,1021.74 790,1035.5C 809.229,1092.14 810.229,1149.14 793,1206.5C 786.644,1229.73 774.811,1249.56 757.5,1266C 740.696,1277.93 724.696,1276.93 709.5,1263C 692.977,1243.14 682.81,1220.3 679,1194.5C 669.988,1143.31 674.321,1093.31 692,1044.5C 698.469,1027.73 708.302,1013.23 721.5,1001C 727.006,996.898 733.006,994.065 739.5,992.5 Z"/></g>
</svg>
