<?xml version="1.0" encoding="UTF-8"?>
<!DOCTYPE svg PUBLIC "-//W3C//DTD SVG 1.1//EN" "http://www.w3.org/Graphics/SVG/1.1/DTD/svg11.dtd">
<svg xmlns="http://www.w3.org/2000/svg" version="1.1" width="3840px" height="2160px" style="shape-rendering:geometricPrecision; text-rendering:geometricPrecision; image-rendering:optimizeQuality; fill-rule:evenodd; clip-rule:evenodd" xmlns:xlink="http://www.w3.org/1999/xlink">
<g><path style="opacity:1" fill="#025daa" d="M 1873.5,243.5 C 2084.02,235.625 2272.69,295.458 2439.5,423C 2561.31,519.648 2650.31,640.481 2706.5,785.5C 2785.5,785.5 2864.5,785.5 2943.5,785.5C 2943.67,953.5 2943.5,1121.5 2943,1289.5C 2935.21,1340.63 2906.04,1371.79 2855.5,1383C 2805.86,1384.3 2756.19,1384.96 2706.5,1385C 2628.28,1580.51 2496.62,1728.17 2311.5,1828C 2152.55,1909.41 1986.22,1939.74 1812.5,1919C 1623.72,1894.26 1461.06,1816.6 1324.5,1686C 1236.7,1600.12 1170.36,1499.79 1125.5,1385C 1079.5,1384.67 1033.5,1384.33 987.5,1384C 942.133,1377.96 911.633,1353.46 896,1310.5C 894.031,1303.96 892.697,1297.29 892,1290.5C 891.5,1122.17 891.333,953.834 891.5,785.5C 969.167,785.667 1046.83,785.5 1124.5,785C 1203.06,587.793 1335.72,439.126 1522.5,339C 1633,281.965 1750,250.131 1873.5,243.5 Z"/></g>
<g><path style="opacity:1" fill="#fefefe" d="M 1889.5,267.5 C 2113.72,263.419 2309.39,336.586 2476.5,487C 2571.29,576 2641.62,681.5 2687.5,803.5C 2766.16,804.5 2844.83,804.833 2923.5,804.5C 2923.67,967.834 2923.5,1131.17 2923,1294.5C 2914.71,1333.79 2890.88,1357.29 2851.5,1365C 2796.83,1365.33 2742.17,1365.67 2687.5,1366C 2611.44,1561.52 2481.11,1708.85 2296.5,1808C 2111.78,1900.84 1919.12,1923.84 1718.5,1877C 1525.05,1826.74 1368.88,1721.91 1250,1562.5C 1206.13,1501.95 1170.97,1436.45 1144.5,1366C 1090.83,1365.67 1037.17,1365.33 983.5,1365C 940.005,1355.84 915.672,1329.17 910.5,1285C 910.503,1125.04 910.503,964.874 910.5,804.5C 988.5,804.5 1066.5,804.5 1144.5,804.5C 1210.33,629.621 1322,492.121 1479.5,392C 1605.16,314.58 1741.83,273.08 1889.5,267.5 Z"/></g>
<g><path style="opacity:1" fill="#005daa" d="M 1910.5,286.5 C 2120.27,288.025 2303.27,358.525 2459.5,498C 2551.97,583.714 2620.97,685.547 2666.5,803.5C 2166.17,804.5 1665.83,804.833 1165.5,804.5C 1238.65,616.521 1363.98,474.688 1541.5,379C 1657.29,319.136 1780.29,288.302 1910.5,286.5 Z"/></g>
<g><path style="opacity:1" fill="#fefefe" d="M 1925.5,721.5 C 1930.86,723.337 1936.19,725.17 1941.5,727C 1933.16,730.025 1924.49,731.358 1915.5,731C 1908.99,734.858 1907.83,740.025 1912,746.5C 1918.84,754.112 1927.34,756.946 1937.5,755C 1945.83,754.338 1951.66,750.171 1955,742.5C 1956.95,736.659 1957.78,730.659 1957.5,724.5C 1958.28,702.791 1960.78,681.124 1965,659.5C 1966.44,639.772 1968.44,620.106 1971,600.5C 1973.61,585.329 1978.61,570.996 1986,557.5C 1988.77,549.587 1989.1,541.587 1987,533.5C 1982.81,526.446 1979.14,519.112 1976,511.5C 1972.64,498.617 1974.64,486.617 1982,475.5C 2000.45,453.945 2013.11,429.278 2020,401.5C 2027.83,394.546 2033.5,396.212 2037,406.5C 2038.07,421.508 2039.23,436.508 2040.5,451.5C 2050.03,455.202 2058.37,460.702 2065.5,468C 2072.01,467.793 2078.34,466.459 2084.5,464C 2094.01,459.083 2103.01,453.417 2111.5,447C 2124.67,446.162 2131.67,452.495 2132.5,466C 2132,471.151 2130.5,475.985 2128,480.5C 2122,486.5 2116,492.5 2110,498.5C 2107.11,505.942 2103.45,512.942 2099,519.5C 2089.89,527.608 2081.89,536.608 2075,546.5C 2073.41,553.729 2075.08,560.062 2080,565.5C 2089.1,573.73 2096.77,583.063 2103,593.5C 2109.45,606.393 2114.78,619.726 2119,633.5C 2126,646.167 2133,658.833 2140,671.5C 2145.77,686.331 2147.77,701.664 2146,717.5C 2158.49,721.21 2169.15,718.21 2178,708.5C 2181.45,703.379 2185.29,698.546 2189.5,694C 2194.92,693.088 2197.59,695.421 2197.5,701C 2197.14,705.208 2195.81,709.042 2193.5,712.5C 2180.77,726.546 2165.1,736.046 2146.5,741C 2141.17,742.333 2135.83,743.667 2130.5,745C 2129.56,747.719 2129.22,750.552 2129.5,753.5C 2128.56,764.482 2124.22,773.982 2116.5,782C 2114.04,783.562 2111.38,784.562 2108.5,785C 2103.5,785.333 2098.5,785.667 2093.5,786C 2088.4,791.1 2082.74,795.433 2076.5,799C 2067.08,801.637 2058.08,800.637 2049.5,796C 2046.63,792.962 2043.63,790.129 2040.5,787.5C 2036.91,780.493 2035.91,773.159 2037.5,765.5C 2038.04,765.44 2038.38,765.107 2038.5,764.5C 2035.36,763.197 2032.36,763.197 2029.5,764.5C 2017.76,764.566 2007.1,761.233 1997.5,754.5C 1993.24,762.02 1988.24,769.02 1982.5,775.5C 1975.15,782.585 1966.32,786.252 1956,786.5C 1934.41,785.652 1912.91,784.319 1891.5,782.5C 1879.18,779.009 1867.51,773.842 1856.5,767C 1835.56,757.303 1813.56,753.636 1790.5,756C 1781.29,756.624 1772.96,759.624 1765.5,765C 1759.64,770.758 1752.97,775.258 1745.5,778.5C 1743.23,779.423 1740.9,780.256 1738.5,781C 1728.81,781.658 1719.15,781.492 1709.5,780.5C 1699.61,778.657 1692.44,773.323 1688,764.5C 1686.85,761.607 1686.35,758.607 1686.5,755.5C 1673.07,754.403 1660.4,756.737 1648.5,762.5C 1635.36,765.121 1622.03,764.288 1608.5,760C 1593.57,751.217 1593.9,742.884 1609.5,735C 1620.43,732.296 1631.43,729.963 1642.5,728C 1650.82,724.345 1656.32,718.178 1659,709.5C 1661.66,686.006 1671.83,666.506 1689.5,651C 1695.67,646.167 1701.83,641.333 1708,636.5C 1712.55,613.895 1716.88,591.229 1721,568.5C 1725.5,546.834 1733.84,526.834 1746,508.5C 1752.39,500.779 1759.39,493.779 1767,487.5C 1768.89,481.215 1767.22,476.215 1762,472.5C 1755.51,463.183 1751.51,452.85 1750,441.5C 1745.61,444.436 1741.78,447.936 1738.5,452C 1737.83,452.667 1737.17,452.667 1736.5,452C 1728.09,438.918 1717.59,427.751 1705,418.5C 1696.92,393.074 1704.08,373.24 1726.5,359C 1743.99,352.726 1761.32,346.059 1778.5,339C 1820.32,326.052 1861.98,326.386 1903.5,340C 1929.13,352.505 1937.97,372.672 1930,400.5C 1926.23,414.369 1920.56,427.369 1913,439.5C 1910.93,434.525 1907.76,430.358 1903.5,427C 1902.21,426.51 1900.87,426.343 1899.5,426.5C 1899.59,437.309 1898.42,447.976 1896,458.5C 1893.51,465.482 1890.01,471.816 1885.5,477.5C 1910.99,514.805 1921.49,556.138 1917,601.5C 1914.57,635.339 1912.07,669.172 1909.5,703C 1909.46,705.63 1909.96,708.13 1911,710.5C 1915.43,714.767 1920.26,718.433 1925.5,721.5 Z"/></g>
<g><path style="opacity:1" fill="#044676" d="M 2193.5,712.5 C 2192.95,714.901 2192.12,717.235 2191,719.5C 2185.68,724.868 2180.34,729.535 2175,733.5C 2174.67,733.167 2174.33,732.833 2174,732.5C 2172.49,734.008 2170.83,735.341 2169,736.5C 2168.67,736.167 2168.33,735.833 2168,735.5C 2166.49,737.008 2164.83,738.341 2163,739.5C 2162.67,739.167 2162.33,738.833 2162,738.5C 2156.08,742.461 2150.08,745.461 2144,747.5C 2142.17,748.659 2140.51,749.992 2139,751.5C 2138.67,751.167 2138.33,750.833 2138,750.5C 2134.7,752.142 2132.03,754.475 2130,757.5C 2129.51,756.207 2129.34,754.873 2129.5,753.5C 2129.22,750.552 2129.56,747.719 2130.5,745C 2135.83,743.667 2141.17,742.333 2146.5,741C 2165.1,736.046 2180.77,726.546 2193.5,712.5 Z"/></g>
<g><path style="opacity:1" fill="#014474" d="M 1957.5,724.5 C 1957.78,730.659 1956.95,736.659 1955,742.5C 1951.66,750.171 1945.83,754.338 1937.5,755C 1927.34,756.946 1918.84,754.112 1912,746.5C 1907.83,740.025 1908.99,734.858 1915.5,731C 1924.49,731.358 1933.16,730.025 1941.5,727C 1936.19,725.17 1930.86,723.337 1925.5,721.5C 1926.26,720.732 1927.26,720.232 1928.5,720C 1938.18,719.38 1947.85,719.546 1957.5,720.5C 1957.5,721.833 1957.5,723.167 1957.5,724.5 Z"/></g>
<g><path style="opacity:1" fill="#014474" d="M 2029.5,764.5 C 2032.39,764.194 2035.05,764.527 2037.5,765.5C 2035.91,773.159 2036.91,780.493 2040.5,787.5C 2032.44,784.09 2024.1,781.59 2015.5,780C 2004.34,778.564 1993.34,777.064 1982.5,775.5C 1988.24,769.02 1993.24,762.02 1997.5,754.5C 2007.1,761.233 2017.76,764.566 2029.5,764.5 Z"/></g>
<g><path style="opacity:1" fill="#024475" d="M 1709.5,780.5 C 1706.7,781.638 1703.7,781.805 1700.5,781C 1690.87,775.407 1681.03,771.24 1671,768.5C 1670.67,768.833 1670.33,769.167 1670,769.5C 1667.76,768.046 1665.42,766.712 1663,765.5C 1661.6,766.051 1660.27,766.384 1659,766.5C 1656.67,765.167 1654.33,763.833 1652,762.5C 1650.85,763.684 1649.69,763.684 1648.5,762.5C 1660.4,756.737 1673.07,754.403 1686.5,755.5C 1686.35,758.607 1686.85,761.607 1688,764.5C 1692.44,773.323 1699.61,778.657 1709.5,780.5 Z"/></g>
<g><path style="opacity:1" fill="#004373" d="M 1891.5,782.5 C 1865.67,786.516 1839.67,788.016 1813.5,787C 1806.33,785.702 1799,785.035 1791.5,785C 1790.23,784.691 1789.07,784.191 1788,783.5C 1783.9,784.057 1779.74,784.39 1775.5,784.5C 1769.65,783.087 1763.82,781.753 1758,780.5C 1754.54,781.791 1751.04,781.791 1747.5,780.5C 1746.76,779.818 1746.09,779.151 1745.5,778.5C 1752.97,775.258 1759.64,770.758 1765.5,765C 1772.96,759.624 1781.29,756.624 1790.5,756C 1813.56,753.636 1835.56,757.303 1856.5,767C 1867.51,773.842 1879.18,779.009 1891.5,782.5 Z"/></g>
<g><path style="opacity:1" fill="#98bddc" d="M 2029.5,764.5 C 2032.36,763.197 2035.36,763.197 2038.5,764.5C 2038.38,765.107 2038.04,765.44 2037.5,765.5C 2035.05,764.527 2032.39,764.194 2029.5,764.5 Z"/></g>
<g><path style="opacity:1" fill="#0d60ac" d="M 2820.5,862.5 C 2845.03,864.034 2858.37,877.034 2860.5,901.5C 2859.07,924.717 2846.91,938.05 2824,941.5C 2800.21,939.3 2787.38,926.134 2785.5,902C 2786.82,879.517 2798.49,866.35 2820.5,862.5 Z"/></g>
<g><path style="opacity:1" fill="#fafbfd" d="M 2818.5,868.5 C 2840.63,868.447 2852.96,879.614 2855.5,902C 2854.39,917.787 2846.39,928.453 2831.5,934C 2807.2,937.012 2793.53,926.345 2790.5,902C 2791.74,883.933 2801.08,872.766 2818.5,868.5 Z"/></g>
<g><path style="opacity:1" fill="#055eaa" d="M 2808.5,880.5 C 2817.35,879.874 2826.01,880.707 2834.5,883C 2838.19,887.135 2839.36,891.969 2838,897.5C 2836.59,900.295 2834.76,902.795 2832.5,905C 2834.94,910.369 2836.94,915.869 2838.5,921.5C 2836.14,921.663 2833.81,921.497 2831.5,921C 2828.95,916.013 2826.78,910.846 2825,905.5C 2822,904.167 2819,904.167 2816,905.5C 2815.5,910.823 2815.33,916.156 2815.5,921.5C 2813.17,921.5 2810.83,921.5 2808.5,921.5C 2808.5,907.833 2808.5,894.167 2808.5,880.5 Z"/></g>
<g><path style="opacity:1" fill="#015daa" d="M 1051.5,886.5 C 1123.53,886.774 1195.53,887.107 1267.5,887.5C 1267.5,902.5 1267.5,917.5 1267.5,932.5C 1218.59,932.169 1169.76,932.503 1121,933.5C 1120.33,973.5 1120.33,1013.5 1121,1053.5C 1167.1,1054.33 1213.26,1054.83 1259.5,1055C 1259.5,1069.67 1259.5,1084.33 1259.5,1099C 1258.58,1099.37 1257.75,1099.87 1257,1100.5C 1211.9,1099.34 1166.74,1099.17 1121.5,1100C 1120.17,1161 1120.17,1222 1121.5,1283C 1096.83,1283.67 1072.17,1283.67 1047.5,1283C 1047.17,1151.33 1046.83,1019.67 1046.5,888C 1048.38,887.802 1050.05,887.302 1051.5,886.5 Z"/></g>
<g><path style="opacity:1" fill="#015daa" d="M 2164.5,886.5 C 2185.86,886.773 2207.2,887.107 2228.5,887.5C 2228.99,908.651 2228.49,929.651 2227,950.5C 2205.2,950.079 2183.37,949.746 2161.5,949.5C 2160.5,928.844 2160.17,908.177 2160.5,887.5C 2162.1,887.768 2163.43,887.434 2164.5,886.5 Z"/></g>
<g><path style="opacity:1" fill="#f4f8fb" d="M 2815.5,887.5 C 2820.3,887.121 2824.96,887.621 2829.5,889C 2832.36,892.761 2831.69,895.761 2827.5,898C 2823.83,898.667 2820.17,898.667 2816.5,898C 2815.54,894.606 2815.21,891.106 2815.5,887.5 Z"/></g>
<g><path style="opacity:1" fill="#015daa" d="M 1389.5,1003.5 C 1400.74,1003.89 1412.74,1004.73 1425.5,1006C 1451.82,1008.74 1471.99,1021.24 1486,1043.5C 1489.61,1053.26 1492.27,1063.26 1494,1073.5C 1494.5,1143.5 1494.67,1213.5 1494.5,1283.5C 1471.5,1283.67 1448.5,1283.5 1425.5,1283C 1426.82,1271.56 1426.82,1260.06 1425.5,1248.5C 1397.78,1285.24 1361.78,1297.07 1317.5,1284C 1281.16,1267.15 1267.33,1238.98 1276,1199.5C 1279.92,1186.25 1287.09,1175.08 1297.5,1166C 1310.02,1155.74 1324.02,1148.07 1339.5,1143C 1367.89,1134.52 1396.72,1129.69 1426,1128.5C 1426.85,1107.14 1426.51,1085.81 1425,1064.5C 1422.61,1038.9 1408.77,1028.07 1383.5,1032C 1369.14,1036.51 1361.31,1046.34 1360,1061.5C 1357.57,1071.36 1356.4,1081.36 1356.5,1091.5C 1332.17,1091.5 1307.83,1091.5 1283.5,1091.5C 1283.03,1049.15 1303.03,1021.98 1343.5,1010C 1358.77,1006.34 1374.11,1004.18 1389.5,1003.5 Z"/></g>
<g><path style="opacity:1" fill="#005daa" d="M 1702.5,1003.5 C 1703.5,1027.33 1703.83,1051.33 1703.5,1075.5C 1685.01,1075.31 1667.01,1078.14 1649.5,1084C 1631.99,1091.85 1620.49,1105.01 1615,1123.5C 1613.02,1130.71 1611.69,1138.05 1611,1145.5C 1610.5,1191.5 1610.33,1237.5 1610.5,1283.5C 1587.5,1283.5 1564.5,1283.5 1541.5,1283.5C 1541.17,1192.5 1541.5,1101.5 1542.5,1010.5C 1564.83,1009.17 1587.17,1009.17 1609.5,1010.5C 1610.33,1033.16 1610.83,1055.83 1611,1078.5C 1621.46,1058.38 1634.62,1040.21 1650.5,1024C 1665.98,1012.34 1683.31,1005.51 1702.5,1003.5 Z"/></g>
<g><path style="opacity:1" fill="#015daa" d="M 1884.5,1003.5 C 1914.62,1002.03 1935.45,1015.7 1947,1044.5C 1950.09,1052.26 1952.25,1060.26 1953.5,1068.5C 1958.14,1061.22 1962.31,1053.55 1966,1045.5C 1987.63,1009.32 2018.47,996.484 2058.5,1007C 2074.55,1012.72 2085.72,1023.55 2092,1039.5C 2098.14,1056.49 2101.3,1073.99 2101.5,1092C 2101.49,1155.63 2101.49,1219.46 2101.5,1283.5C 2079.17,1283.5 2056.83,1283.5 2034.5,1283.5C 2034.97,1217.48 2034.47,1151.48 2033,1085.5C 2030.74,1059.23 2016.91,1049.39 1991.5,1056C 1978.95,1062.24 1970.45,1072.07 1966,1085.5C 1959.57,1105.32 1955.57,1125.66 1954,1146.5C 1953.5,1192.17 1953.33,1237.83 1953.5,1283.5C 1931.16,1283.67 1908.83,1283.5 1886.5,1283C 1887.49,1224.2 1887.83,1165.53 1887.5,1107C 1886.89,1094.37 1885.05,1081.87 1882,1069.5C 1877,1059.16 1868.67,1053.82 1857,1053.5C 1845.63,1054.18 1836.3,1058.85 1829,1067.5C 1816.72,1087 1810.06,1108.33 1809,1131.5C 1807.6,1143.7 1806.43,1155.87 1805.5,1168C 1805.83,1206.33 1806.17,1244.67 1806.5,1283C 1784.17,1283.5 1761.84,1283.67 1739.5,1283.5C 1739.5,1192.5 1739.5,1101.5 1739.5,1010.5C 1761.57,1009.88 1783.57,1009.88 1805.5,1010.5C 1806.33,1030.83 1806.83,1051.16 1807,1071.5C 1813.79,1051.41 1824.95,1034.25 1840.5,1020C 1853.44,1009.69 1868.11,1004.19 1884.5,1003.5 Z"/></g>
<g><path style="opacity:1" fill="#005daa" d="M 2443.5,1003.5 C 2477.36,1002.52 2499.53,1018.19 2510,1050.5C 2513.15,1063.2 2514.98,1076.03 2515.5,1089C 2514.18,1153.39 2514.18,1218.06 2515.5,1283C 2492.17,1283.67 2468.83,1283.67 2445.5,1283C 2446.49,1223.53 2446.83,1164.2 2446.5,1105C 2445.85,1094.1 2444.35,1083.27 2442,1072.5C 2438.18,1059.7 2429.52,1053.37 2416,1053.5C 2405.11,1054.01 2395.78,1058.01 2388,1065.5C 2371.88,1084.84 2362.54,1107.18 2360,1132.5C 2358.71,1142.14 2357.71,1151.8 2357,1161.5C 2356.5,1202.17 2356.33,1242.83 2356.5,1283.5C 2333.5,1283.5 2310.5,1283.5 2287.5,1283.5C 2287.17,1192.5 2287.5,1101.5 2288.5,1010.5C 2310.83,1009.17 2333.17,1009.17 2355.5,1010.5C 2356.33,1030.83 2356.83,1051.16 2357,1071.5C 2363.5,1059.83 2370.5,1048.5 2378,1037.5C 2394.59,1015.96 2416.42,1004.62 2443.5,1003.5 Z"/></g>
<g><path style="opacity:1" fill="#025daa" d="M 2639.5,1086.5 C 2638.55,1087.92 2638.22,1089.59 2638.5,1091.5C 2614.17,1091.5 2589.83,1091.5 2565.5,1091.5C 2568.07,1040.75 2594.74,1012.25 2645.5,1006C 2672.2,1002.33 2699.54,1003.66 2727.5,1010C 2758.1,1021.61 2774.6,1043.78 2777,1076.5C 2777.5,1145.5 2777.67,1214.5 2777.5,1283.5C 2754.5,1283.5 2731.5,1283.5 2708.5,1283.5C 2708.67,1271.83 2708.5,1260.16 2708,1248.5C 2679.28,1286.22 2642.44,1297.72 2597.5,1283C 2562.42,1264.68 2549.58,1236.51 2559,1198.5C 2563.13,1185.07 2570.63,1173.91 2581.5,1165C 2601.22,1149.65 2623.56,1139.98 2648.5,1136C 2668.31,1132.1 2688.31,1130.27 2708.5,1130.5C 2708.93,1107.13 2708.43,1083.8 2707,1060.5C 2702.14,1035.48 2687.31,1026.31 2662.5,1033C 2653.17,1036.34 2647.33,1042.84 2645,1052.5C 2641.76,1063.62 2639.93,1074.95 2639.5,1086.5 Z"/></g>
<g><path style="opacity:1" fill="#005daa" d="M 2161.5,1009.5 C 2183.48,1009.79 2205.48,1010.13 2227.5,1010.5C 2228.5,1101.5 2228.83,1192.5 2228.5,1283.5C 2205.83,1283.5 2183.17,1283.5 2160.5,1283.5C 2160.17,1192.1 2160.5,1100.76 2161.5,1009.5 Z"/></g>
<g><path style="opacity:1" fill="#b0cde4" d="M 2639.5,1086.5 C 2639.5,1088.5 2639.5,1090.5 2639.5,1092.5C 2614.66,1092.83 2589.99,1092.5 2565.5,1091.5C 2589.83,1091.5 2614.17,1091.5 2638.5,1091.5C 2638.22,1089.59 2638.55,1087.92 2639.5,1086.5 Z"/></g>
<g><path style="opacity:1" fill="#fdfdfe" d="M 1418.5,1157.5 C 1421.17,1157.5 1423.83,1157.5 1426.5,1157.5C 1427.35,1174.73 1425.85,1191.73 1422,1208.5C 1417.45,1224.12 1408.62,1236.62 1395.5,1246C 1363.56,1257.35 1346.22,1246.02 1343.5,1212C 1343.89,1205.23 1345.39,1198.73 1348,1192.5C 1358.68,1177.17 1373.18,1167.34 1391.5,1163C 1400.55,1160.74 1409.55,1158.91 1418.5,1157.5 Z"/></g>
<g><path style="opacity:1" fill="#fdfdfe" d="M 2700.5,1157.5 C 2703.17,1157.5 2705.83,1157.5 2708.5,1157.5C 2711.57,1181.73 2707.74,1204.73 2697,1226.5C 2684.37,1248.07 2666.2,1254.9 2642.5,1247C 2631.41,1238.31 2626.08,1226.81 2626.5,1212.5C 2626.48,1203.38 2628.98,1195.05 2634,1187.5C 2645.5,1174 2660,1165.5 2677.5,1162C 2685.3,1160.48 2692.97,1158.98 2700.5,1157.5 Z"/></g>
<g><path style="opacity:1" fill="#014475" d="M 2609.5,1483.5 C 2607.23,1483.86 2605.4,1483.19 2604,1481.5C 2602.33,1481.83 2600.67,1482.17 2599,1482.5C 2597.33,1481.17 2595.67,1479.83 2594,1478.5C 2593,1478.83 2592,1479.17 2591,1479.5C 2588.19,1478.22 2585.35,1476.88 2582.5,1475.5C 2581.91,1475.71 2581.41,1476.04 2581,1476.5C 2573.85,1473.79 2566.85,1471.45 2560,1469.5C 2559.67,1469.83 2559.33,1470.17 2559,1470.5C 2556.05,1469.61 2553.38,1468.27 2551,1466.5C 2549.33,1466.83 2547.67,1467.17 2546,1467.5C 2543.4,1466.06 2540.74,1464.73 2538,1463.5C 2537,1463.83 2536,1464.17 2535,1464.5C 2532.44,1463.46 2530.11,1462.12 2528,1460.5C 2526.33,1460.83 2524.67,1461.17 2523,1461.5C 2520.4,1460.06 2517.74,1458.73 2515,1457.5C 2513.73,1457.62 2512.4,1457.95 2511,1458.5C 2508.26,1457.27 2505.6,1455.94 2503,1454.5C 2502,1454.83 2501,1455.17 2500,1455.5C 2496.84,1454.38 2493.84,1453.04 2491,1451.5C 2489.73,1451.62 2488.4,1451.95 2487,1452.5C 2483.27,1451.38 2479.6,1450.04 2476,1448.5C 2475.23,1448.64 2474.56,1448.98 2474,1449.5C 2469.79,1448.22 2465.62,1446.89 2461.5,1445.5C 2418.25,1436.68 2374.92,1428.51 2331.5,1421C 2331,1420.5 2330.5,1420 2330,1419.5C 2327.67,1419.83 2325.33,1420.17 2323,1420.5C 2318.7,1419.11 2314.37,1417.77 2310,1416.5C 2307.67,1416.83 2305.33,1417.17 2303,1417.5C 2299,1416.17 2295,1414.83 2291,1413.5C 2288.56,1413.65 2286.06,1413.98 2283.5,1414.5C 2279.4,1412.82 2275.07,1411.98 2270.5,1412C 2270,1411.5 2269.5,1411 2269,1410.5C 2266,1410.83 2263,1411.17 2260,1411.5C 2254.89,1410.09 2249.73,1408.75 2244.5,1407.5C 2242.42,1408.04 2240.25,1408.37 2238,1408.5C 2237.5,1408 2237,1407.5 2236.5,1407C 2231.83,1406.67 2227.17,1406.33 2222.5,1406C 2222,1405.5 2221.5,1405 2221,1404.5C 2217.33,1404.83 2213.67,1405.17 2210,1405.5C 2209.5,1405 2209,1404.5 2208.5,1404C 2204.02,1404.06 2199.85,1403.23 2196,1401.5C 2191.67,1401.83 2187.33,1402.17 2183,1402.5C 2182.5,1402 2182,1401.5 2181.5,1401C 2176.5,1400.67 2171.5,1400.33 2166.5,1400C 2166,1399.5 2165.5,1399 2165,1398.5C 2160,1398.83 2155,1399.17 2150,1399.5C 2143.33,1398.17 2136.67,1396.83 2130,1395.5C 2124.33,1395.83 2118.67,1396.17 2113,1396.5C 2105,1395.17 2097,1393.83 2089,1392.5C 2081.33,1392.83 2073.67,1393.17 2066,1393.5C 2065.5,1393 2065,1392.5 2064.5,1392C 2054.5,1391.67 2044.5,1391.33 2034.5,1391C 2033.23,1390.69 2032.07,1390.19 2031,1389.5C 2018.56,1390.2 2006.22,1390.53 1994,1390.5C 1993.2,1389.2 1992.03,1388.53 1990.5,1388.5C 1939.65,1388.6 1888.82,1388.6 1838,1388.5C 1836.33,1389.17 1834.67,1389.83 1833,1390.5C 1820.39,1390.35 1807.72,1390.02 1795,1389.5C 1784.75,1391.3 1774.25,1392.13 1763.5,1392C 1763,1392.5 1762.5,1393 1762,1393.5C 1755,1393.17 1748,1392.83 1741,1392.5C 1740.5,1393 1740,1393.5 1739.5,1394C 1731.73,1393.88 1724.23,1394.72 1717,1396.5C 1711.33,1396.17 1705.67,1395.83 1700,1395.5C 1699.25,1396.13 1698.42,1396.63 1697.5,1397C 1691.5,1397.33 1685.5,1397.67 1679.5,1398C 1679,1398.5 1678.5,1399 1678,1399.5C 1673,1399.17 1668,1398.83 1663,1398.5C 1658.13,1400.25 1652.96,1401.09 1647.5,1401C 1647,1401.5 1646.5,1402 1646,1402.5C 1641.67,1402.17 1637.33,1401.83 1633,1401.5C 1628.33,1402.83 1623.67,1404.17 1619,1405.5C 1615.33,1405.17 1611.67,1404.83 1608,1404.5C 1607.5,1405 1607,1405.5 1606.5,1406C 1601.83,1406.33 1597.17,1406.67 1592.5,1407C 1592,1407.5 1591.5,1408 1591,1408.5C 1587.85,1407.7 1584.85,1407.37 1582,1407.5C 1578.15,1409.23 1573.98,1410.06 1569.5,1410C 1569,1410.5 1568.5,1411 1568,1411.5C 1565,1411.17 1562,1410.83 1559,1410.5C 1555.04,1411.9 1551.04,1413.23 1547,1414.5C 1544,1414.17 1541,1413.83 1538,1413.5C 1533.7,1414.89 1529.37,1416.23 1525,1417.5C 1522.67,1417.17 1520.33,1416.83 1518,1416.5C 1514,1417.83 1510,1419.17 1506,1420.5C 1503.67,1420.17 1501.33,1419.83 1499,1419.5C 1498.5,1420 1498,1420.5 1497.5,1421C 1449.44,1428.31 1401.28,1437.81 1353,1449.5C 1352.59,1449.04 1352.09,1448.71 1351.5,1448.5C 1348.65,1449.88 1345.81,1451.22 1343,1452.5C 1341.6,1451.95 1340.27,1451.62 1339,1451.5C 1331.96,1453.92 1324.96,1456.25 1318,1458.5C 1316.33,1458.17 1314.67,1457.83 1313,1457.5C 1310.67,1458.83 1308.33,1460.17 1306,1461.5C 1304.33,1461.17 1302.67,1460.83 1301,1460.5C 1299,1461.83 1297,1463.17 1295,1464.5C 1293.33,1464.17 1291.67,1463.83 1290,1463.5C 1287.67,1464.83 1285.33,1466.17 1283,1467.5C 1281.33,1467.17 1279.67,1466.83 1278,1466.5C 1276,1467.83 1274,1469.17 1272,1470.5C 1270.33,1470.17 1268.67,1469.83 1267,1469.5C 1264.67,1470.83 1262.33,1472.17 1260,1473.5C 1258.6,1472.95 1257.27,1472.62 1256,1472.5C 1253.4,1473.94 1250.74,1475.27 1248,1476.5C 1247.59,1476.04 1247.09,1475.71 1246.5,1475.5C 1244.22,1476.74 1242.05,1478.07 1240,1479.5C 1238.33,1479.17 1236.67,1478.83 1235,1478.5C 1233,1479.83 1231,1481.17 1229,1482.5C 1227.33,1482.17 1225.67,1481.83 1224,1481.5C 1223.72,1482.42 1223.22,1483.08 1222.5,1483.5C 1200.11,1446.04 1181.44,1406.71 1166.5,1365.5C 1666.17,1365.5 2165.83,1365.5 2665.5,1365.5C 2650.07,1406.49 2631.41,1445.83 2609.5,1483.5 Z"/></g>
<g><path style="opacity:1" fill="#005daa" d="M 2609.5,1483.5 C 2509.37,1651.77 2367.04,1769.27 2182.5,1836C 2003.8,1896.3 1825.13,1895.96 1646.5,1835C 1473.51,1771.65 1337.01,1662.81 1237,1508.5C 1231.91,1500.26 1227.08,1491.93 1222.5,1483.5C 1223.22,1483.08 1223.72,1482.42 1224,1481.5C 1225.67,1481.83 1227.33,1482.17 1229,1482.5C 1231,1481.17 1233,1479.83 1235,1478.5C 1236.67,1478.83 1238.33,1479.17 1240,1479.5C 1242.05,1478.07 1244.22,1476.74 1246.5,1475.5C 1247.09,1475.71 1247.59,1476.04 1248,1476.5C 1250.74,1475.27 1253.4,1473.94 1256,1472.5C 1257.27,1472.62 1258.6,1472.95 1260,1473.5C 1262.33,1472.17 1264.67,1470.83 1267,1469.5C 1268.67,1469.83 1270.33,1470.17 1272,1470.5C 1274,1469.17 1276,1467.83 1278,1466.5C 1279.67,1466.83 1281.33,1467.17 1283,1467.5C 1285.33,1466.17 1287.67,1464.83 1290,1463.5C 1291.67,1463.83 1293.33,1464.17 1295,1464.5C 1297,1463.17 1299,1461.83 1301,1460.5C 1302.67,1460.83 1304.33,1461.17 1306,1461.5C 1308.33,1460.17 1310.67,1458.83 1313,1457.5C 1314.67,1457.83 1316.33,1458.17 1318,1458.5C 1324.96,1456.25 1331.96,1453.92 1339,1451.5C 1340.27,1451.62 1341.6,1451.95 1343,1452.5C 1345.81,1451.22 1348.65,1449.88 1351.5,1448.5C 1352.09,1448.71 1352.59,1449.04 1353,1449.5C 1401.28,1437.81 1449.44,1428.31 1497.5,1421C 1498,1420.5 1498.5,1420 1499,1419.5C 1501.33,1419.83 1503.67,1420.17 1506,1420.5C 1510,1419.17 1514,1417.83 1518,1416.5C 1520.33,1416.83 1522.67,1417.17 1525,1417.5C 1529.37,1416.23 1533.7,1414.89 1538,1413.5C 1541,1413.83 1544,1414.17 1547,1414.5C 1551.04,1413.23 1555.04,1411.9 1559,1410.5C 1562,1410.83 1565,1411.17 1568,1411.5C 1568.5,1411 1569,1410.5 1569.5,1410C 1573.98,1410.06 1578.15,1409.23 1582,1407.5C 1584.85,1407.37 1587.85,1407.7 1591,1408.5C 1591.5,1408 1592,1407.5 1592.5,1407C 1597.17,1406.67 1601.83,1406.33 1606.5,1406C 1607,1405.5 1607.5,1405 1608,1404.5C 1611.67,1404.83 1615.33,1405.17 1619,1405.5C 1623.67,1404.17 1628.33,1402.83 1633,1401.5C 1637.33,1401.83 1641.67,1402.17 1646,1402.5C 1646.5,1402 1647,1401.5 1647.5,1401C 1652.96,1401.09 1658.13,1400.25 1663,1398.5C 1668,1398.83 1673,1399.17 1678,1399.5C 1678.5,1399 1679,1398.5 1679.5,1398C 1685.5,1397.67 1691.5,1397.33 1697.5,1397C 1698.42,1396.63 1699.25,1396.13 1700,1395.5C 1705.67,1395.83 1711.33,1396.17 1717,1396.5C 1724.23,1394.72 1731.73,1393.88 1739.5,1394C 1740,1393.5 1740.5,1393 1741,1392.5C 1748,1392.83 1755,1393.17 1762,1393.5C 1762.5,1393 1763,1392.5 1763.5,1392C 1774.25,1392.13 1784.75,1391.3 1795,1389.5C 1807.72,1390.02 1820.39,1390.35 1833,1390.5C 1834.67,1389.83 1836.33,1389.17 1838,1388.5C 1888.82,1388.6 1939.65,1388.6 1990.5,1388.5C 1992.03,1388.53 1993.2,1389.2 1994,1390.5C 2006.22,1390.53 2018.56,1390.2 2031,1389.5C 2032.07,1390.19 2033.23,1390.69 2034.5,1391C 2044.5,1391.33 2054.5,1391.67 2064.5,1392C 2065,1392.5 2065.5,1393 2066,1393.5C 2073.67,1393.17 2081.33,1392.83 2089,1392.5C 2097,1393.83 2105,1395.17 2113,1396.5C 2118.67,1396.17 2124.33,1395.83 2130,1395.5C 2136.67,1396.83 2143.33,1398.17 2150,1399.5C 2155,1399.17 2160,1398.83 2165,1398.5C 2165.5,1399 2166,1399.5 2166.5,1400C 2171.5,1400.33 2176.5,1400.67 2181.5,1401C 2182,1401.5 2182.5,1402 2183,1402.5C 2187.33,1402.17 2191.67,1401.83 2196,1401.5C 2199.85,1403.23 2204.02,1404.06 2208.5,1404C 2209,1404.5 2209.5,1405 2210,1405.5C 2213.67,1405.17 2217.33,1404.83 2221,1404.5C 2221.5,1405 2222,1405.5 2222.5,1406C 2227.17,1406.33 2231.83,1406.67 2236.5,1407C 2237,1407.5 2237.5,1408 2238,1408.5C 2240.25,1408.37 2242.42,1408.04 2244.5,1407.5C 2249.73,1408.75 2254.89,1410.09 2260,1411.5C 2263,1411.17 2266,1410.83 2269,1410.5C 2269.5,1411 2270,1411.5 2270.5,1412C 2275.07,1411.98 2279.4,1412.82 2283.5,1414.5C 2286.06,1413.98 2288.56,1413.65 2291,1413.5C 2295,1414.83 2299,1416.17 2303,1417.5C 2305.33,1417.17 2307.67,1416.83 2310,1416.5C 2314.37,1417.77 2318.7,1419.11 2323,1420.5C 2325.33,1420.17 2327.67,1419.83 2330,1419.5C 2330.5,1420 2331,1420.5 2331.5,1421C 2374.92,1428.51 2418.25,1436.68 2461.5,1445.5C 2465.62,1446.89 2469.79,1448.22 2474,1449.5C 2474.56,1448.98 2475.23,1448.64 2476,1448.5C 2479.6,1450.04 2483.27,1451.38 2487,1452.5C 2488.4,1451.95 2489.73,1451.62 2491,1451.5C 2493.84,1453.04 2496.84,1454.38 2500,1455.5C 2501,1455.17 2502,1454.83 2503,1454.5C 2505.6,1455.94 2508.26,1457.27 2511,1458.5C 2512.4,1457.95 2513.73,1457.62 2515,1457.5C 2517.74,1458.73 2520.4,1460.06 2523,1461.5C 2524.67,1461.17 2526.33,1460.83 2528,1460.5C 2530.11,1462.12 2532.44,1463.46 2535,1464.5C 2536,1464.17 2537,1463.83 2538,1463.5C 2540.74,1464.73 2543.4,1466.06 2546,1467.5C 2547.67,1467.17 2549.33,1466.83 2551,1466.5C 2553.38,1468.27 2556.05,1469.61 2559,1470.5C 2559.33,1470.17 2559.67,1469.83 2560,1469.5C 2566.85,1471.45 2573.85,1473.79 2581,1476.5C 2581.41,1476.04 2581.91,1475.71 2582.5,1475.5C 2585.35,1476.88 2588.19,1478.22 2591,1479.5C 2592,1479.17 2593,1478.83 2594,1478.5C 2595.67,1479.83 2597.33,1481.17 2599,1482.5C 2600.67,1482.17 2602.33,1481.83 2604,1481.5C 2605.4,1483.19 2607.23,1483.86 2609.5,1483.5 Z"/></g>
<g><path style="opacity:1" fill="#fcfdfe" d="M 1462.5,1475.5 C 1481.33,1474.34 1500.33,1474.17 1519.5,1475C 1554.44,1478.29 1569.94,1497.45 1566,1532.5C 1563.34,1553.83 1551.51,1566.99 1530.5,1572C 1516.95,1573.91 1503.62,1575.25 1490.5,1576C 1491.83,1602 1491.83,1628 1490.5,1654C 1481.01,1654.97 1471.67,1654.64 1462.5,1653C 1463.74,1593.72 1463.74,1534.55 1462.5,1475.5 Z"/></g>
<g><path style="opacity:1" fill="#fcfdfe" d="M 1844.5,1474.5 C 1874.5,1474.5 1904.5,1474.5 1934.5,1474.5C 1934.5,1480.17 1934.5,1485.83 1934.5,1491.5C 1913.83,1491.5 1893.17,1491.5 1872.5,1491.5C 1872.33,1511.5 1872.5,1531.5 1873,1551.5C 1892.09,1552.49 1911.26,1552.83 1930.5,1552.5C 1930.5,1558.17 1930.5,1563.83 1930.5,1569.5C 1911.17,1569.5 1891.83,1569.5 1872.5,1569.5C 1872.5,1597.83 1872.5,1626.17 1872.5,1654.5C 1863.16,1654.67 1853.83,1654.5 1844.5,1654C 1844.51,1594.37 1844.51,1534.54 1844.5,1474.5 Z"/></g>
<g><path style="opacity:1" fill="#fdfdfe" d="M 2254.5,1474.5 C 2262.83,1474.5 2271.17,1474.5 2279.5,1474.5C 2279.5,1534.5 2279.5,1594.5 2279.5,1654.5C 2271.17,1654.5 2262.83,1654.5 2254.5,1654.5C 2254.67,1647.83 2254.5,1641.16 2254,1634.5C 2244.18,1654.82 2228.35,1661.65 2206.5,1655C 2194.96,1650.46 2187.13,1642.29 2183,1630.5C 2174.69,1605.99 2174.36,1581.66 2182,1557.5C 2191.95,1531.44 2210.45,1522.28 2237.5,1530C 2245,1533.5 2250.5,1539 2254,1546.5C 2254.5,1522.5 2254.67,1498.5 2254.5,1474.5 Z"/></g>
<g><path style="opacity:1" fill="#fbfcfd" d="M 1724.5,1485.5 C 1726.32,1500.13 1727.15,1515.13 1727,1530.5C 1737.33,1530.17 1747.67,1529.83 1758,1529.5C 1759.44,1533.97 1759.94,1538.64 1759.5,1543.5C 1748.5,1543.5 1737.5,1543.5 1726.5,1543.5C 1726.04,1572.88 1726.54,1602.21 1728,1631.5C 1729.5,1637 1733,1640.5 1738.5,1642C 1744.3,1642.88 1749.97,1642.38 1755.5,1640.5C 1756.83,1645.5 1756.83,1650.5 1755.5,1655.5C 1740.28,1659.2 1725.61,1657.7 1711.5,1651C 1704.78,1645.85 1701.28,1639.02 1701,1630.5C 1700.5,1601.5 1700.33,1572.5 1700.5,1543.5C 1694.17,1543.5 1687.83,1543.5 1681.5,1543.5C 1681.17,1539.12 1681.51,1534.78 1682.5,1530.5C 1688.07,1530.31 1693.57,1530.31 1699,1530.5C 1699.75,1529.87 1700.58,1529.37 1701.5,1529C 1700.18,1519.56 1700.18,1510.06 1701.5,1500.5C 1709.4,1495.72 1717.07,1490.72 1724.5,1485.5 Z"/></g>
<g><path style="opacity:1" fill="#035eaa" d="M 1490.5,1492.5 C 1503.98,1490 1516.98,1491.83 1529.5,1498C 1534.62,1503.08 1537.46,1509.25 1538,1516.5C 1539.43,1526.57 1538.1,1536.24 1534,1545.5C 1530.13,1550.85 1524.97,1554.35 1518.5,1556C 1509.63,1556.98 1500.8,1557.82 1492,1558.5C 1491.63,1557.58 1491.13,1556.75 1490.5,1556C 1490.6,1534.72 1490.6,1513.55 1490.5,1492.5 Z"/></g>
<g><path style="opacity:1" fill="#fcfdfe" d="M 1670.5,1578.5 C 1647.34,1577.5 1624.01,1577.17 1600.5,1577.5C 1600.19,1580.71 1600.52,1583.71 1601.5,1586.5C 1602.93,1606 1610.6,1622.5 1624.5,1636C 1639.17,1645.01 1654.33,1645.84 1670,1638.5C 1670.8,1642.75 1670.63,1646.92 1669.5,1651C 1650.6,1658.39 1631.27,1659.06 1611.5,1653C 1589.33,1642.19 1577.49,1624.35 1576,1599.5C 1574.21,1584.09 1575.88,1569.09 1581,1554.5C 1590.12,1534.85 1605.62,1525.85 1627.5,1527.5C 1646.77,1525.71 1660.6,1533.38 1669,1550.5C 1671.94,1559.62 1673.27,1568.95 1673,1578.5C 1672.23,1577.4 1671.4,1577.4 1670.5,1578.5 Z"/></g>
<g><path style="opacity:1" fill="#fbfdfd" d="M 1982.5,1527.5 C 2019.54,1524.05 2040.38,1540.72 2045,1577.5C 2047.65,1597.31 2044.98,1616.31 2037,1634.5C 2028.43,1647.72 2016.27,1655.22 2000.5,1657C 1964.43,1659.93 1944.26,1643.43 1940,1607.5C 1936.96,1586.84 1939.96,1567.17 1949,1548.5C 1956.96,1536.37 1968.13,1529.37 1982.5,1527.5 Z"/></g>
<g><path style="opacity:1" fill="#fbfcfd" d="M 2100.5,1527.5 C 2134.87,1523.42 2155.7,1538.08 2163,1571.5C 2167.35,1594.58 2164.35,1616.58 2154,1637.5C 2141,1653.4 2124.16,1659.9 2103.5,1657C 2079.28,1653.45 2064.78,1639.62 2060,1615.5C 2056.13,1595.05 2057.8,1574.38 2065,1553.5C 2072.48,1538.85 2084.32,1530.18 2100.5,1527.5 Z"/></g>
<g><path style="opacity:1" fill="#fbfcfd" d="M 2335.5,1527.5 C 2343.17,1527.33 2350.84,1527.5 2358.5,1528C 2363.9,1528.81 2369.07,1530.31 2374,1532.5C 2374.67,1539.83 2374.67,1547.17 2374,1554.5C 2363.81,1545.66 2351.97,1541.83 2338.5,1543C 2327.91,1546.01 2324.74,1552.51 2329,1562.5C 2331.17,1564.67 2333.33,1566.83 2335.5,1569C 2345.5,1575.33 2355.5,1581.67 2365.5,1588C 2381.45,1600.96 2385.95,1617.13 2379,1636.5C 2373.88,1645.94 2366.05,1652.11 2355.5,1655C 2337.7,1659.05 2320.37,1657.72 2303.5,1651C 2304.83,1643.67 2304.83,1636.33 2303.5,1629C 2304.5,1628.33 2305.5,1628.33 2306.5,1629C 2317.58,1638.14 2330.25,1641.8 2344.5,1640C 2354.18,1638.15 2358.68,1632.31 2358,1622.5C 2357.28,1620.05 2356.28,1617.72 2355,1615.5C 2351.17,1612.33 2347.33,1609.17 2343.5,1606C 2333.99,1601.08 2324.99,1595.42 2316.5,1589C 2301.57,1574.32 2299.74,1558.15 2311,1540.5C 2317.68,1533.23 2325.85,1528.89 2335.5,1527.5 Z"/></g>
<g><path style="opacity:1" fill="#0a5fab" d="M 1620.5,1538.5 C 1632.88,1536.27 1641.38,1540.94 1646,1552.5C 1646.98,1556.67 1647.81,1560.84 1648.5,1565C 1632.99,1566.48 1617.32,1566.98 1601.5,1566.5C 1602.04,1556.92 1605.71,1548.75 1612.5,1542C 1615.16,1540.52 1617.82,1539.36 1620.5,1538.5 Z"/></g>
<g><path style="opacity:1" fill="#015daa" d="M 1986.5,1538.5 C 2002.46,1537.28 2011.96,1544.62 2015,1560.5C 2018.33,1581.5 2018.33,1602.5 2015,1623.5C 2013.48,1632.06 2009.31,1638.89 2002.5,1644C 1990.36,1648.84 1980.86,1645.67 1974,1634.5C 1970.47,1626.2 1968.47,1617.53 1968,1608.5C 1966.95,1592.75 1967.62,1577.08 1970,1561.5C 1971.94,1551.09 1977.44,1543.42 1986.5,1538.5 Z"/></g>
<g><path style="opacity:1" fill="#015daa" d="M 2105.5,1538.5 C 2118.63,1536.81 2127.47,1542.15 2132,1554.5C 2133.84,1560.38 2135.18,1566.38 2136,1572.5C 2136.67,1585.5 2136.67,1598.5 2136,1611.5C 2135.1,1618.68 2133.43,1625.68 2131,1632.5C 2124.55,1645.15 2114.71,1648.98 2101.5,1644C 2093.21,1637.16 2088.71,1628.33 2088,1617.5C 2084.49,1597.24 2085.49,1576.24 2091,1554.5C 2093.65,1547.02 2098.49,1541.69 2105.5,1538.5 Z"/></g>
<g><path style="opacity:1" fill="#025daa" d="M 2224.5,1542.5 C 2238.31,1540.99 2246.81,1546.99 2250,1560.5C 2253.08,1577.7 2253.74,1594.03 2252,1609.5C 2251.75,1620.82 2247.58,1630.32 2239.5,1638C 2228.87,1643.01 2220.04,1640.84 2213,1631.5C 2207.06,1618.87 2204.23,1605.53 2204.5,1591.5C 2204.42,1577.04 2207.59,1563.38 2214,1550.5C 2216.86,1546.79 2220.36,1544.12 2224.5,1542.5 Z"/></g>
<g><path style="opacity:1" fill="#b0cde4" d="M 1670.5,1578.5 C 1647.5,1578.5 1624.5,1578.5 1601.5,1578.5C 1601.5,1581.17 1601.5,1583.83 1601.5,1586.5C 1600.52,1583.71 1600.19,1580.71 1600.5,1577.5C 1624.01,1577.17 1647.34,1577.5 1670.5,1578.5 Z"/></g>
</svg>
