<?xml version="1.0" encoding="UTF-8"?>
<!DOCTYPE svg PUBLIC "-//W3C//DTD SVG 1.1//EN" "http://www.w3.org/Graphics/SVG/1.1/DTD/svg11.dtd">
<svg xmlns="http://www.w3.org/2000/svg" version="1.1" width="3840px" height="2160px" style="shape-rendering:geometricPrecision; text-rendering:geometricPrecision; image-rendering:optimizeQuality; fill-rule:evenodd; clip-rule:evenodd" xmlns:xlink="http://www.w3.org/1999/xlink">
<g><path style="opacity:0.247" fill="#156338" d="M 2315.5,322.5 C 1711.83,322.5 1108.17,322.5 504.5,322.5C 504.611,321.883 504.944,321.383 505.5,321C 807.167,320.833 1108.83,320.667 1410.5,320.5C 1712.5,320.5 2014.17,321.167 2315.5,322.5 Z"/></g>
<g><path style="opacity:0.246" fill="#156338" d="M 3099.5,322.5 C 2923.83,322.5 2748.17,322.5 2572.5,322.5C 2572.78,321.711 2573.28,321.044 2574,320.5C 2661.91,320.841 2750.24,320.841 2839,320.5C 2926.17,320.5 3013,321.167 3099.5,322.5 Z"/></g>
<g><path style="opacity:1" fill="#01673c" d="M 504.5,322.5 C 1108.17,322.5 1711.83,322.5 2315.5,322.5C 2315.29,323.922 2314.79,325.255 2314,326.5C 2283.55,368.28 2253.89,410.613 2225,453.5C 2203.5,484.336 2177.33,510.502 2146.5,532C 2107.81,553.721 2066.14,564.554 2021.5,564.5C 1853.17,564.5 1684.83,564.5 1516.5,564.5C 1516.5,773.5 1516.5,982.5 1516.5,1191.5C 1418.83,1191.5 1321.17,1191.5 1223.5,1191.5C 1223.5,982.5 1223.5,773.5 1223.5,564.5C 984.167,564.5 744.833,564.5 505.5,564.5C 504.167,524.506 503.5,484.172 503.5,443.5C 503.5,402.999 503.833,362.665 504.5,322.5 Z"/></g>
<g><path style="opacity:1" fill="#01673c" d="M 2572.5,322.5 C 2748.17,322.5 2923.83,322.5 3099.5,322.5C 3154.88,396.735 3209.38,471.735 3263,547.5C 3377.38,703.226 3491.04,859.56 3604,1016.5C 3639.92,1066.09 3676.25,1115.42 3713,1164.5C 3718.28,1172.78 3723.94,1180.78 3730,1188.5C 3731.01,1190.02 3731.51,1191.69 3731.5,1193.5C 3656.32,1193.49 3581.32,1193.49 3506.5,1193.5C 3484.05,1193.01 3461.89,1190.34 3440,1185.5C 3439.67,1185.83 3439.33,1186.17 3439,1186.5C 3435.13,1185.61 3431.13,1184.28 3427,1182.5C 3425.85,1183.46 3424.85,1183.12 3424,1181.5C 3423.67,1181.83 3423.33,1182.17 3423,1182.5C 3383.76,1169.32 3350.09,1146.99 3322,1115.5C 3310.33,1101.17 3298.67,1086.83 3287,1072.5C 3150.12,882.706 3012.79,693.706 2875,505.5C 2841.75,458.346 2808.09,412.013 2774,366.5C 2772.56,364.725 2771.56,362.725 2771,360.5C 2569.34,637.935 2367.5,915.435 2165.5,1193C 2047.17,1193.5 1928.83,1193.67 1810.5,1193.5C 1810.26,1190.77 1811.1,1188.44 1813,1186.5C 1993.41,939.106 2173.41,691.106 2353,442.5C 2369.01,421.151 2386.51,400.985 2405.5,382C 2429.24,360.872 2456.07,344.706 2486,333.5C 2486.33,333.833 2486.67,334.167 2487,334.5C 2514.81,325.884 2543.31,321.884 2572.5,322.5 Z"/></g>
<g><path style="opacity:1" fill="#01673c" d="M 396.5,322.5 C 398.5,322.5 400.5,322.5 402.5,322.5C 402.667,542.167 402.5,761.834 402,981.5C 396.106,1089.24 341.773,1150.9 239,1166.5C 193.811,1177.51 149.978,1186.18 107.5,1192.5C 107.333,971.5 107.5,750.5 108,529.5C 110.189,497.742 117.856,467.409 131,438.5C 150.281,403.153 177.781,378.319 213.5,364C 224.994,358.987 236.328,355.487 247.5,353.5C 280.282,345.219 312.282,338.552 343.5,333.5C 361.261,329.682 378.928,326.015 396.5,322.5 Z"/></g>
<g><path style="opacity:0.692" fill="#0f643a" d="M 505.5,564.5 C 744.833,564.5 984.167,564.5 1223.5,564.5C 1223.5,773.5 1223.5,982.5 1223.5,1191.5C 1321.17,1191.5 1418.83,1191.5 1516.5,1191.5C 1516.5,982.5 1516.5,773.5 1516.5,564.5C 1684.83,564.5 1853.17,564.5 2021.5,564.5C 1853.67,565.5 1685.67,565.833 1517.5,565.5C 1517.5,774.833 1517.5,984.167 1517.5,1193.5C 1419.17,1193.5 1320.83,1193.5 1222.5,1193.5C 1222.5,984.167 1222.5,774.833 1222.5,565.5C 983.333,565.833 744.333,565.5 505.5,564.5 Z"/></g>
<g><path style="opacity:0.169" fill="#136339" d="M 2876.5,866.5 C 2800.94,867.628 2725.77,867.628 2651,866.5C 2644,867.167 2637,867.833 2630,868.5C 2615.28,868.792 2600.62,870.792 2586,874.5C 2585.62,873.944 2585.12,873.611 2584.5,873.5C 2601.11,869.296 2618.11,866.796 2635.5,866C 2716,865.168 2796.33,865.334 2876.5,866.5 Z"/></g>
<g><path style="opacity:1" fill="#bd1e0c" d="M 2876.5,866.5 C 2874.9,868.698 2873.57,871.031 2872.5,873.5C 2871.09,873.973 2870.43,874.973 2870.5,876.5C 2870.5,877.167 2870.17,877.5 2869.5,877.5C 2868.09,877.973 2867.43,878.973 2867.5,880.5C 2866.09,880.973 2865.43,881.973 2865.5,883.5C 2865.5,884.167 2865.17,884.5 2864.5,884.5C 2863.09,884.973 2862.43,885.973 2862.5,887.5C 2862.5,888.167 2862.17,888.5 2861.5,888.5C 2859.94,889.945 2858.6,891.611 2857.5,893.5C 2857.5,893.833 2857.5,894.167 2857.5,894.5C 2856.17,895.167 2855.17,896.167 2854.5,897.5C 2854.5,897.833 2854.5,898.167 2854.5,898.5C 2852.37,900.091 2850.7,902.091 2849.5,904.5C 2848.34,907.475 2846.68,910.142 2844.5,912.5C 2843.17,912.5 2842.5,913.167 2842.5,914.5C 2841.97,916.23 2840.97,917.564 2839.5,918.5C 2838.09,918.973 2837.43,919.973 2837.5,921.5C 2836.09,921.973 2835.43,922.973 2835.5,924.5C 2835.17,925.167 2834.83,925.833 2834.5,926.5C 2833.17,926.5 2832.5,927.167 2832.5,928.5C 2831.09,928.973 2830.43,929.973 2830.5,931.5C 2830.5,932.167 2830.17,932.5 2829.5,932.5C 2828.09,932.973 2827.43,933.973 2827.5,935.5C 2827.5,936.167 2827.17,936.5 2826.5,936.5C 2825.09,936.973 2824.43,937.973 2824.5,939.5C 2823.09,939.973 2822.43,940.973 2822.5,942.5C 2822.5,943.167 2822.17,943.5 2821.5,943.5C 2820.09,943.973 2819.43,944.973 2819.5,946.5C 2817.1,948.296 2815.43,950.63 2814.5,953.5C 2812.74,954.262 2811.74,955.596 2811.5,957.5C 2810.09,957.973 2809.43,958.973 2809.5,960.5C 2808.09,960.973 2807.43,961.973 2807.5,963.5C 2806.83,963.5 2806.5,963.833 2806.5,964.5C 2805.09,964.973 2804.43,965.973 2804.5,967.5C 2803.08,970.009 2801.41,972.343 2799.5,974.5C 2798.5,974.833 2797.83,975.5 2797.5,976.5C 2797.17,977.167 2796.83,977.833 2796.5,978.5C 2795.5,978.833 2794.83,979.5 2794.5,980.5C 2793.92,982.411 2792.92,984.078 2791.5,985.5C 2790.17,985.5 2789.5,986.167 2789.5,987.5C 2787.74,988.262 2786.74,989.596 2786.5,991.5C 2785.09,991.973 2784.43,992.973 2784.5,994.5C 2784.5,995.167 2784.17,995.5 2783.5,995.5C 2782.09,995.973 2781.43,996.973 2781.5,998.5C 2780.09,998.973 2779.43,999.973 2779.5,1001.5C 2777.74,1002.26 2776.74,1003.6 2776.5,1005.5C 2775.09,1005.97 2774.43,1006.97 2774.5,1008.5C 2772.74,1009.26 2771.74,1010.6 2771.5,1012.5C 2770.09,1012.97 2769.43,1013.97 2769.5,1015.5C 2769.5,1016.17 2769.17,1016.5 2768.5,1016.5C 2767.09,1016.97 2766.43,1017.97 2766.5,1019.5C 2765.09,1019.97 2764.43,1020.97 2764.5,1022.5C 2764.5,1023.17 2764.17,1023.5 2763.5,1023.5C 2762.09,1023.97 2761.43,1024.97 2761.5,1026.5C 2759.1,1028.3 2757.43,1030.63 2756.5,1033.5C 2754.74,1034.26 2753.74,1035.6 2753.5,1037.5C 2751.37,1039.09 2749.7,1041.09 2748.5,1043.5C 2746.94,1047.39 2744.6,1050.73 2741.5,1053.5C 2740.09,1053.97 2739.43,1054.97 2739.5,1056.5C 2739.5,1057.17 2739.17,1057.5 2738.5,1057.5C 2737.09,1057.97 2736.43,1058.97 2736.5,1060.5C 2735.09,1060.97 2734.43,1061.97 2734.5,1063.5C 2734.17,1064.17 2733.83,1064.83 2733.5,1065.5C 2732.17,1065.5 2731.5,1066.17 2731.5,1067.5C 2729.74,1068.26 2728.74,1069.6 2728.5,1071.5C 2727.09,1071.97 2726.43,1072.97 2726.5,1074.5C 2726.5,1075.17 2726.17,1075.5 2725.5,1075.5C 2724.09,1075.97 2723.43,1076.97 2723.5,1078.5C 2722.09,1078.97 2721.43,1079.97 2721.5,1081.5C 2719.74,1082.26 2718.74,1083.6 2718.5,1085.5C 2716.1,1087.3 2714.43,1089.63 2713.5,1092.5C 2711.74,1093.26 2710.74,1094.6 2710.5,1096.5C 2709.09,1096.97 2708.43,1097.97 2708.5,1099.5C 2707.5,1099.83 2706.83,1100.5 2706.5,1101.5C 2706.17,1102.17 2705.83,1102.83 2705.5,1103.5C 2704.5,1103.83 2703.83,1104.5 2703.5,1105.5C 2703.67,1106.49 2703.34,1107.16 2702.5,1107.5C 2701.09,1107.97 2700.43,1108.97 2700.5,1110.5C 2700.07,1111.71 2699.4,1112.71 2698.5,1113.5C 2697.17,1113.5 2696.5,1114.17 2696.5,1115.5C 2696.17,1116.17 2695.83,1116.83 2695.5,1117.5C 2694.17,1117.5 2693.5,1118.17 2693.5,1119.5C 2692.92,1121.41 2691.92,1123.08 2690.5,1124.5C 2689.17,1124.5 2688.5,1125.17 2688.5,1126.5C 2686.74,1127.26 2685.74,1128.6 2685.5,1130.5C 2684.09,1130.97 2683.43,1131.97 2683.5,1133.5C 2683.5,1134.17 2683.17,1134.5 2682.5,1134.5C 2681.09,1134.97 2680.43,1135.97 2680.5,1137.5C 2678.1,1139.3 2676.43,1141.63 2675.5,1144.5C 2674.09,1144.97 2673.43,1145.97 2673.5,1147.5C 2671.74,1148.26 2670.74,1149.6 2670.5,1151.5C 2669.09,1151.97 2668.43,1152.97 2668.5,1154.5C 2668.5,1155.17 2668.17,1155.5 2667.5,1155.5C 2666.09,1155.97 2665.43,1156.97 2665.5,1158.5C 2664.09,1158.97 2663.43,1159.97 2663.5,1161.5C 2663.5,1162.17 2663.17,1162.5 2662.5,1162.5C 2661.09,1162.97 2660.43,1163.97 2660.5,1165.5C 2658.37,1167.09 2656.7,1169.09 2655.5,1171.5C 2655.5,1171.83 2655.5,1172.17 2655.5,1172.5C 2654.17,1173.17 2653.17,1174.17 2652.5,1175.5C 2652.5,1175.83 2652.5,1176.17 2652.5,1176.5C 2651.5,1176.83 2650.83,1177.5 2650.5,1178.5C 2648.22,1182.78 2645.55,1186.78 2642.5,1190.5C 2523.71,1191.83 2405.04,1191.83 2286.5,1190.5C 2287.11,1188.57 2288.11,1186.9 2289.5,1185.5C 2291.53,1184.46 2292.86,1182.79 2293.5,1180.5C 2294.91,1180.03 2295.57,1179.03 2295.5,1177.5C 2297.26,1176.74 2298.26,1175.4 2298.5,1173.5C 2299.91,1173.03 2300.57,1172.03 2300.5,1170.5C 2300.5,1169.83 2300.83,1169.5 2301.5,1169.5C 2302.91,1169.03 2303.57,1168.03 2303.5,1166.5C 2305.26,1165.74 2306.26,1164.4 2306.5,1162.5C 2307.91,1162.03 2308.57,1161.03 2308.5,1159.5C 2311.93,1156.4 2314.6,1152.73 2316.5,1148.5C 2318.9,1146.7 2320.57,1144.37 2321.5,1141.5C 2322.91,1141.03 2323.57,1140.03 2323.5,1138.5C 2325.26,1137.74 2326.26,1136.4 2326.5,1134.5C 2326.5,1133.83 2326.83,1133.5 2327.5,1133.5C 2328.91,1133.03 2329.57,1132.03 2329.5,1130.5C 2330.5,1130.17 2331.17,1129.5 2331.5,1128.5C 2331.33,1127.51 2331.66,1126.84 2332.5,1126.5C 2333.97,1125.56 2334.97,1124.23 2335.5,1122.5C 2337.03,1119.44 2339.03,1116.77 2341.5,1114.5C 2343.26,1113.74 2344.26,1112.4 2344.5,1110.5C 2345.91,1110.03 2346.57,1109.03 2346.5,1107.5C 2346.5,1106.83 2346.83,1106.5 2347.5,1106.5C 2348.91,1106.03 2349.57,1105.03 2349.5,1103.5C 2353.32,1099.19 2356.65,1094.53 2359.5,1089.5C 2360.91,1089.03 2361.57,1088.03 2361.5,1086.5C 2361.5,1085.83 2361.83,1085.5 2362.5,1085.5C 2363.91,1085.03 2364.57,1084.03 2364.5,1082.5C 2366.26,1081.74 2367.26,1080.4 2367.5,1078.5C 2368.91,1078.03 2369.57,1077.03 2369.5,1075.5C 2371.63,1073.91 2373.3,1071.91 2374.5,1069.5C 2374.5,1069.17 2374.5,1068.83 2374.5,1068.5C 2375.83,1067.83 2376.83,1066.83 2377.5,1065.5C 2377.5,1065.17 2377.5,1064.83 2377.5,1064.5C 2379.63,1062.91 2381.3,1060.91 2382.5,1058.5C 2382.5,1058.17 2382.5,1057.83 2382.5,1057.5C 2383.5,1057.17 2384.17,1056.5 2384.5,1055.5C 2385.79,1052.88 2387.45,1050.55 2389.5,1048.5C 2391.26,1047.74 2392.26,1046.4 2392.5,1044.5C 2393.91,1044.03 2394.57,1043.03 2394.5,1041.5C 2395.91,1041.03 2396.57,1040.03 2396.5,1038.5C 2396.83,1037.83 2397.17,1037.17 2397.5,1036.5C 2398.83,1036.5 2399.5,1035.83 2399.5,1034.5C 2401.26,1033.74 2402.26,1032.4 2402.5,1030.5C 2403.91,1030.03 2404.57,1029.03 2404.5,1027.5C 2404.5,1026.83 2404.83,1026.5 2405.5,1026.5C 2406.91,1026.03 2407.57,1025.03 2407.5,1023.5C 2409.26,1022.74 2410.26,1021.4 2410.5,1019.5C 2411.91,1019.03 2412.57,1018.03 2412.5,1016.5C 2415.93,1013.4 2418.6,1009.73 2420.5,1005.5C 2421.91,1005.03 2422.57,1004.03 2422.5,1002.5C 2424.26,1001.74 2425.26,1000.4 2425.5,998.5C 2426.03,996.77 2427.03,995.436 2428.5,994.5C 2429.91,994.027 2430.57,993.027 2430.5,991.5C 2431.5,991.167 2432.17,990.5 2432.5,989.5C 2433.4,988.71 2434.07,987.71 2434.5,986.5C 2435.43,983.63 2437.1,981.296 2439.5,979.5C 2440.91,979.027 2441.57,978.027 2441.5,976.5C 2441.5,975.833 2441.83,975.5 2442.5,975.5C 2444.26,974.738 2445.26,973.404 2445.5,971.5C 2447.59,970.415 2448.92,968.749 2449.5,966.5C 2452.64,963.54 2455.31,960.207 2457.5,956.5C 2457.5,956.167 2457.5,955.833 2457.5,955.5C 2460.5,954.5 2462.5,952.5 2463.5,949.5C 2463.5,948.833 2463.83,948.5 2464.5,948.5C 2467.9,946.1 2470.57,943.1 2472.5,939.5C 2476.17,935.167 2480.17,931.167 2484.5,927.5C 2488.1,925.57 2491.1,922.903 2493.5,919.5C 2495.75,918.92 2497.42,917.587 2498.5,915.5C 2498.5,914.833 2498.83,914.5 2499.5,914.5C 2501.4,914.262 2502.74,913.262 2503.5,911.5C 2505.4,911.262 2506.74,910.262 2507.5,908.5C 2511.39,906.938 2514.73,904.605 2517.5,901.5C 2520.2,901.155 2522.2,899.822 2523.5,897.5C 2535.72,891.555 2548.05,885.889 2560.5,880.5C 2561.79,880.737 2562.79,880.404 2563.5,879.5C 2565.4,879.204 2567.07,878.537 2568.5,877.5C 2570.1,877.768 2571.43,877.434 2572.5,876.5C 2573.57,875.566 2574.9,875.232 2576.5,875.5C 2578,876.443 2579.33,876.109 2580.5,874.5C 2582,875.443 2583.33,875.109 2584.5,873.5C 2585.12,873.611 2585.62,873.944 2586,874.5C 2600.62,870.792 2615.28,868.792 2630,868.5C 2637,867.833 2644,867.167 2651,866.5C 2725.77,867.628 2800.94,867.628 2876.5,866.5 Z"/></g>
<g><path style="opacity:0.341" fill="#116439" d="M 2876.5,866.5 C 2877.53,866.897 2877.69,867.563 2877,868.5C 2875.95,870.618 2874.45,872.284 2872.5,873.5C 2873.57,871.031 2874.9,868.698 2876.5,866.5 Z"/></g>
<g><path style="opacity:0.525" fill="#0c653a" d="M 2580.5,874.5 C 2581.57,873.566 2582.9,873.232 2584.5,873.5C 2583.33,875.109 2582,875.443 2580.5,874.5 Z"/></g>
<g><path style="opacity:0.525" fill="#0c653a" d="M 2576.5,875.5 C 2577.57,874.566 2578.9,874.232 2580.5,874.5C 2579.33,876.109 2578,876.443 2576.5,875.5 Z"/></g>
<g><path style="opacity:0.341" fill="#116439" d="M 2872.5,873.5 C 2872.57,875.027 2871.91,876.027 2870.5,876.5C 2870.43,874.973 2871.09,873.973 2872.5,873.5 Z"/></g>
<g><path style="opacity:0.525" fill="#0f643a" d="M 2572.5,876.5 C 2571.43,877.434 2570.1,877.768 2568.5,877.5C 2569.67,875.891 2571,875.557 2572.5,876.5 Z"/></g>
<g><path style="opacity:0.525" fill="#0f643a" d="M 2568.5,877.5 C 2567.07,878.537 2565.4,879.204 2563.5,879.5C 2564.78,877.341 2566.45,876.674 2568.5,877.5 Z"/></g>
<g><path style="opacity:0.153" fill="#116439" d="M 2869.5,877.5 C 2869.57,879.027 2868.91,880.027 2867.5,880.5C 2867.43,878.973 2868.09,877.973 2869.5,877.5 Z"/></g>
<g><path style="opacity:0.601" fill="#0d653a" d="M 2563.5,879.5 C 2562.79,880.404 2561.79,880.737 2560.5,880.5C 2561.11,878.519 2562.11,878.185 2563.5,879.5 Z"/></g>
<g><path style="opacity:0.153" fill="#116439" d="M 2867.5,880.5 C 2867.57,882.027 2866.91,883.027 2865.5,883.5C 2865.43,881.973 2866.09,880.973 2867.5,880.5 Z"/></g>
<g><path style="opacity:0.247" fill="#116439" d="M 2560.5,880.5 C 2548.05,885.889 2535.72,891.555 2523.5,897.5C 2534.89,889.298 2547.22,883.631 2560.5,880.5 Z"/></g>
<g><path style="opacity:0.153" fill="#116439" d="M 2864.5,884.5 C 2864.57,886.027 2863.91,887.027 2862.5,887.5C 2862.43,885.973 2863.09,884.973 2864.5,884.5 Z"/></g>
<g><path style="opacity:0.153" fill="#126439" d="M 2861.5,888.5 C 2861.33,891.204 2860,892.871 2857.5,893.5C 2858.6,891.611 2859.94,889.945 2861.5,888.5 Z"/></g>
<g><path style="opacity:0.153" fill="#136339" d="M 2857.5,894.5 C 2857.5,896.5 2856.5,897.5 2854.5,897.5C 2855.17,896.167 2856.17,895.167 2857.5,894.5 Z"/></g>
<g><path style="opacity:0.525" fill="#0c653a" d="M 2523.5,897.5 C 2522.2,899.822 2520.2,901.155 2517.5,901.5C 2519.15,899.674 2521.15,898.34 2523.5,897.5 Z"/></g>
<g><path style="opacity:0.732" fill="#0f643a" d="M 2517.5,901.5 C 2514.73,904.605 2511.39,906.938 2507.5,908.5C 2510.27,905.395 2513.61,903.062 2517.5,901.5 Z"/></g>
<g><path style="opacity:0.153" fill="#126439" d="M 2854.5,898.5 C 2853.75,901.362 2852.09,903.362 2849.5,904.5C 2850.7,902.091 2852.37,900.091 2854.5,898.5 Z"/></g>
<g><path style="opacity:0.918" fill="#106439" d="M 2507.5,908.5 C 2506.74,910.262 2505.4,911.262 2503.5,911.5C 2504.26,909.738 2505.6,908.738 2507.5,908.5 Z"/></g>
<g><path style="opacity:0.918" fill="#106439" d="M 2503.5,911.5 C 2502.74,913.262 2501.4,914.262 2499.5,914.5C 2500.26,912.738 2501.6,911.738 2503.5,911.5 Z"/></g>
<g><path style="opacity:0.656" fill="#0b663a" d="M 2844.5,912.5 C 2844.17,913.5 2843.5,914.167 2842.5,914.5C 2842.5,913.167 2843.17,912.5 2844.5,912.5 Z"/></g>
<g><path style="opacity:0.918" fill="#0f643a" d="M 2498.5,915.5 C 2497.42,917.587 2495.75,918.92 2493.5,919.5C 2494.58,917.413 2496.25,916.08 2498.5,915.5 Z"/></g>
<g><path style="opacity:0.153" fill="#10643a" d="M 2839.5,918.5 C 2839.57,920.027 2838.91,921.027 2837.5,921.5C 2837.43,919.973 2838.09,918.973 2839.5,918.5 Z"/></g>
<g><path style="opacity:0.153" fill="#126439" d="M 2837.5,921.5 C 2837.57,923.027 2836.91,924.027 2835.5,924.5C 2835.43,922.973 2836.09,921.973 2837.5,921.5 Z"/></g>
<g><path style="opacity:0.918" fill="#0f643a" d="M 2493.5,919.5 C 2491.1,922.903 2488.1,925.57 2484.5,927.5C 2486.9,924.097 2489.9,921.43 2493.5,919.5 Z"/></g>
<g><path style="opacity:0.341" fill="#126339" d="M 2834.5,926.5 C 2834.17,927.5 2833.5,928.167 2832.5,928.5C 2832.5,927.167 2833.17,926.5 2834.5,926.5 Z"/></g>
<g><path style="opacity:0.341" fill="#116439" d="M 2832.5,928.5 C 2832.57,930.027 2831.91,931.027 2830.5,931.5C 2830.43,929.973 2831.09,928.973 2832.5,928.5 Z"/></g>
<g><path style="opacity:0.341" fill="#116439" d="M 2829.5,932.5 C 2829.57,934.027 2828.91,935.027 2827.5,935.5C 2827.43,933.973 2828.09,932.973 2829.5,932.5 Z"/></g>
<g><path style="opacity:0.341" fill="#116439" d="M 2826.5,936.5 C 2826.57,938.027 2825.91,939.027 2824.5,939.5C 2824.43,937.973 2825.09,936.973 2826.5,936.5 Z"/></g>
<g><path style="opacity:0.341" fill="#116439" d="M 2824.5,939.5 C 2824.57,941.027 2823.91,942.027 2822.5,942.5C 2822.43,940.973 2823.09,939.973 2824.5,939.5 Z"/></g>
<g><path style="opacity:0.918" fill="#0e643a" d="M 2472.5,939.5 C 2470.57,943.1 2467.9,946.1 2464.5,948.5C 2466.43,944.9 2469.1,941.9 2472.5,939.5 Z"/></g>
<g><path style="opacity:0.153" fill="#126439" d="M 2821.5,943.5 C 2821.57,945.027 2820.91,946.027 2819.5,946.5C 2819.43,944.973 2820.09,943.973 2821.5,943.5 Z"/></g>
<g><path style="opacity:0.247" fill="#126339" d="M 2819.5,946.5 C 2818.57,949.37 2816.9,951.704 2814.5,953.5C 2815.43,950.63 2817.1,948.296 2819.5,946.5 Z"/></g>
<g><path style="opacity:0.918" fill="#0f643a" d="M 2463.5,949.5 C 2462.5,952.5 2460.5,954.5 2457.5,955.5C 2459.17,953.167 2461.17,951.167 2463.5,949.5 Z"/></g>
<g><path style="opacity:0.153" fill="#136339" d="M 2814.5,953.5 C 2814.26,955.404 2813.26,956.738 2811.5,957.5C 2811.74,955.596 2812.74,954.262 2814.5,953.5 Z"/></g>
<g><path style="opacity:0.153" fill="#126439" d="M 2811.5,957.5 C 2811.57,959.027 2810.91,960.027 2809.5,960.5C 2809.43,958.973 2810.09,957.973 2811.5,957.5 Z"/></g>
<g><path style="opacity:0.722" fill="#0f643a" d="M 2457.5,956.5 C 2455.31,960.207 2452.64,963.54 2449.5,966.5C 2451.21,962.428 2453.87,959.095 2457.5,956.5 Z"/></g>
<g><path style="opacity:0.153" fill="#126439" d="M 2809.5,960.5 C 2809.57,962.027 2808.91,963.027 2807.5,963.5C 2807.43,961.973 2808.09,960.973 2809.5,960.5 Z"/></g>
<g><path style="opacity:0.153" fill="#116439" d="M 2806.5,964.5 C 2806.57,966.027 2805.91,967.027 2804.5,967.5C 2804.43,965.973 2805.09,964.973 2806.5,964.5 Z"/></g>
<g><path style="opacity:0.918" fill="#0f643a" d="M 2449.5,966.5 C 2448.92,968.749 2447.59,970.415 2445.5,971.5C 2446.08,969.251 2447.41,967.585 2449.5,966.5 Z"/></g>
<g><path style="opacity:1" fill="#09663b" d="M 2445.5,971.5 C 2445.26,973.404 2444.26,974.738 2442.5,975.5C 2442.74,973.596 2443.74,972.262 2445.5,971.5 Z"/></g>
<g><path style="opacity:0.153" fill="#136339" d="M 2799.5,974.5 C 2799.5,975.833 2798.83,976.5 2797.5,976.5C 2797.83,975.5 2798.5,974.833 2799.5,974.5 Z"/></g>
<g><path style="opacity:0.722" fill="#0d653a" d="M 2441.5,976.5 C 2441.57,978.027 2440.91,979.027 2439.5,979.5C 2439.43,977.973 2440.09,976.973 2441.5,976.5 Z"/></g>
<g><path style="opacity:0.247" fill="#136339" d="M 2796.5,978.5 C 2796.5,979.833 2795.83,980.5 2794.5,980.5C 2794.83,979.5 2795.5,978.833 2796.5,978.5 Z"/></g>
<g><path style="opacity:0.722" fill="#0e653a" d="M 2791.5,985.5 C 2791.17,986.5 2790.5,987.167 2789.5,987.5C 2789.5,986.167 2790.17,985.5 2791.5,985.5 Z"/></g>
<g><path style="opacity:0.247" fill="#126439" d="M 2434.5,986.5 C 2434.07,987.71 2433.4,988.71 2432.5,989.5C 2432.29,987.821 2432.95,986.821 2434.5,986.5 Z"/></g>
<g><path style="opacity:0.694" fill="#0b663a" d="M 2789.5,987.5 C 2789.26,989.404 2788.26,990.738 2786.5,991.5C 2786.74,989.596 2787.74,988.262 2789.5,987.5 Z"/></g>
<g><path style="opacity:0.525" fill="#0f653a" d="M 2432.5,989.5 C 2432.17,990.5 2431.5,991.167 2430.5,991.5C 2430.5,990.167 2431.17,989.5 2432.5,989.5 Z"/></g>
<g><path style="opacity:0.525" fill="#10643a" d="M 2430.5,991.5 C 2430.57,993.027 2429.91,994.027 2428.5,994.5C 2428.43,992.973 2429.09,991.973 2430.5,991.5 Z"/></g>
<g><path style="opacity:0.341" fill="#116439" d="M 2786.5,991.5 C 2786.57,993.027 2785.91,994.027 2784.5,994.5C 2784.43,992.973 2785.09,991.973 2786.5,991.5 Z"/></g>
<g><path style="opacity:0.341" fill="#116439" d="M 2783.5,995.5 C 2783.57,997.027 2782.91,998.027 2781.5,998.5C 2781.43,996.973 2782.09,995.973 2783.5,995.5 Z"/></g>
<g><path style="opacity:0.341" fill="#136339" d="M 2781.5,998.5 C 2781.57,1000.03 2780.91,1001.03 2779.5,1001.5C 2779.43,999.973 2780.09,998.973 2781.5,998.5 Z"/></g>
<g><path style="opacity:0.525" fill="#0f643a" d="M 2425.5,998.5 C 2425.26,1000.4 2424.26,1001.74 2422.5,1002.5C 2422.74,1000.6 2423.74,999.262 2425.5,998.5 Z"/></g>
<g><path style="opacity:0.753" fill="#0f643a" d="M 2422.5,1002.5 C 2422.57,1004.03 2421.91,1005.03 2420.5,1005.5C 2420.43,1003.97 2421.09,1002.97 2422.5,1002.5 Z"/></g>
<g><path style="opacity:0.341" fill="#126339" d="M 2779.5,1001.5 C 2779.26,1003.4 2778.26,1004.74 2776.5,1005.5C 2776.74,1003.6 2777.74,1002.26 2779.5,1001.5 Z"/></g>
<g><path style="opacity:0.153" fill="#126439" d="M 2776.5,1005.5 C 2776.57,1007.03 2775.91,1008.03 2774.5,1008.5C 2774.43,1006.97 2775.09,1005.97 2776.5,1005.5 Z"/></g>
<g><path style="opacity:0.341" fill="#126339" d="M 2774.5,1008.5 C 2774.26,1010.4 2773.26,1011.74 2771.5,1012.5C 2771.74,1010.6 2772.74,1009.26 2774.5,1008.5 Z"/></g>
<g><path style="opacity:0.639" fill="#0f643a" d="M 2420.5,1005.5 C 2418.6,1009.73 2415.93,1013.4 2412.5,1016.5C 2414.4,1012.27 2417.07,1008.6 2420.5,1005.5 Z"/></g>
<g><path style="opacity:0.153" fill="#116439" d="M 2771.5,1012.5 C 2771.57,1014.03 2770.91,1015.03 2769.5,1015.5C 2769.43,1013.97 2770.09,1012.97 2771.5,1012.5 Z"/></g>
<g><path style="opacity:0.753" fill="#0e643a" d="M 2412.5,1016.5 C 2412.57,1018.03 2411.91,1019.03 2410.5,1019.5C 2410.43,1017.97 2411.09,1016.97 2412.5,1016.5 Z"/></g>
<g><path style="opacity:0.153" fill="#116439" d="M 2768.5,1016.5 C 2768.57,1018.03 2767.91,1019.03 2766.5,1019.5C 2766.43,1017.97 2767.09,1016.97 2768.5,1016.5 Z"/></g>
<g><path style="opacity:0.153" fill="#116439" d="M 2766.5,1019.5 C 2766.57,1021.03 2765.91,1022.03 2764.5,1022.5C 2764.43,1020.97 2765.09,1019.97 2766.5,1019.5 Z"/></g>
<g><path style="opacity:0.918" fill="#0e643a" d="M 2410.5,1019.5 C 2410.26,1021.4 2409.26,1022.74 2407.5,1023.5C 2407.74,1021.6 2408.74,1020.26 2410.5,1019.5 Z"/></g>
<g><path style="opacity:0.918" fill="#0f643a" d="M 2407.5,1023.5 C 2407.57,1025.03 2406.91,1026.03 2405.5,1026.5C 2405.43,1024.97 2406.09,1023.97 2407.5,1023.5 Z"/></g>
<g><path style="opacity:0.153" fill="#116439" d="M 2763.5,1023.5 C 2763.57,1025.03 2762.91,1026.03 2761.5,1026.5C 2761.43,1024.97 2762.09,1023.97 2763.5,1023.5 Z"/></g>
<g><path style="opacity:0.918" fill="#0f643a" d="M 2404.5,1027.5 C 2404.57,1029.03 2403.91,1030.03 2402.5,1030.5C 2402.43,1028.97 2403.09,1027.97 2404.5,1027.5 Z"/></g>
<g><path style="opacity:0.247" fill="#126339" d="M 2761.5,1026.5 C 2760.57,1029.37 2758.9,1031.7 2756.5,1033.5C 2757.43,1030.63 2759.1,1028.3 2761.5,1026.5 Z"/></g>
<g><path style="opacity:0.918" fill="#0e643a" d="M 2402.5,1030.5 C 2402.26,1032.4 2401.26,1033.74 2399.5,1034.5C 2399.74,1032.6 2400.74,1031.26 2402.5,1030.5 Z"/></g>
<g><path style="opacity:0.918" fill="#106439" d="M 2399.5,1034.5 C 2399.5,1035.83 2398.83,1036.5 2397.5,1036.5C 2397.83,1035.5 2398.5,1034.83 2399.5,1034.5 Z"/></g>
<g><path style="opacity:0.153" fill="#136339" d="M 2756.5,1033.5 C 2756.26,1035.4 2755.26,1036.74 2753.5,1037.5C 2753.74,1035.6 2754.74,1034.26 2756.5,1033.5 Z"/></g>
<g><path style="opacity:0.525" fill="#0e653a" d="M 2396.5,1038.5 C 2396.57,1040.03 2395.91,1041.03 2394.5,1041.5C 2394.43,1039.97 2395.09,1038.97 2396.5,1038.5 Z"/></g>
<g><path style="opacity:0.153" fill="#126439" d="M 2753.5,1037.5 C 2752.75,1040.36 2751.09,1042.36 2748.5,1043.5C 2749.7,1041.09 2751.37,1039.09 2753.5,1037.5 Z"/></g>
<g><path style="opacity:0.525" fill="#0e653a" d="M 2394.5,1041.5 C 2394.57,1043.03 2393.91,1044.03 2392.5,1044.5C 2392.43,1042.97 2393.09,1041.97 2394.5,1041.5 Z"/></g>
<g><path style="opacity:0.722" fill="#0c653a" d="M 2392.5,1044.5 C 2392.26,1046.4 2391.26,1047.74 2389.5,1048.5C 2389.74,1046.6 2390.74,1045.26 2392.5,1044.5 Z"/></g>
<g><path style="opacity:0.153" fill="#10643a" d="M 2741.5,1053.5 C 2741.57,1055.03 2740.91,1056.03 2739.5,1056.5C 2739.43,1054.97 2740.09,1053.97 2741.5,1053.5 Z"/></g>
<g><path style="opacity:0.525" fill="#0f653a" d="M 2384.5,1055.5 C 2384.17,1056.5 2383.5,1057.17 2382.5,1057.5C 2382.5,1056.17 2383.17,1055.5 2384.5,1055.5 Z"/></g>
<g><path style="opacity:0.153" fill="#10643a" d="M 2738.5,1057.5 C 2738.57,1059.03 2737.91,1060.03 2736.5,1060.5C 2736.43,1058.97 2737.09,1057.97 2738.5,1057.5 Z"/></g>
<g><path style="opacity:0.341" fill="#116439" d="M 2736.5,1060.5 C 2736.57,1062.03 2735.91,1063.03 2734.5,1063.5C 2734.43,1061.97 2735.09,1060.97 2736.5,1060.5 Z"/></g>
<g><path style="opacity:0.525" fill="#10643a" d="M 2382.5,1058.5 C 2381.3,1060.91 2379.63,1062.91 2377.5,1064.5C 2378.25,1061.64 2379.91,1059.64 2382.5,1058.5 Z"/></g>
<g><path style="opacity:0.341" fill="#126339" d="M 2733.5,1065.5 C 2733.17,1066.5 2732.5,1067.17 2731.5,1067.5C 2731.5,1066.17 2732.17,1065.5 2733.5,1065.5 Z"/></g>
<g><path style="opacity:0.247" fill="#126339" d="M 2377.5,1065.5 C 2376.83,1066.83 2375.83,1067.83 2374.5,1068.5C 2374.5,1066.5 2375.5,1065.5 2377.5,1065.5 Z"/></g>
<g><path style="opacity:0.341" fill="#126339" d="M 2731.5,1067.5 C 2731.26,1069.4 2730.26,1070.74 2728.5,1071.5C 2728.74,1069.6 2729.74,1068.26 2731.5,1067.5 Z"/></g>
<g><path style="opacity:0.341" fill="#116439" d="M 2728.5,1071.5 C 2728.57,1073.03 2727.91,1074.03 2726.5,1074.5C 2726.43,1072.97 2727.09,1071.97 2728.5,1071.5 Z"/></g>
<g><path style="opacity:0.753" fill="#0f643a" d="M 2374.5,1069.5 C 2373.3,1071.91 2371.63,1073.91 2369.5,1075.5C 2370.25,1072.64 2371.91,1070.64 2374.5,1069.5 Z"/></g>
<g><path style="opacity:0.753" fill="#0f643a" d="M 2369.5,1075.5 C 2369.57,1077.03 2368.91,1078.03 2367.5,1078.5C 2367.43,1076.97 2368.09,1075.97 2369.5,1075.5 Z"/></g>
<g><path style="opacity:0.341" fill="#116439" d="M 2725.5,1075.5 C 2725.57,1077.03 2724.91,1078.03 2723.5,1078.5C 2723.43,1076.97 2724.09,1075.97 2725.5,1075.5 Z"/></g>
<g><path style="opacity:0.341" fill="#116439" d="M 2723.5,1078.5 C 2723.57,1080.03 2722.91,1081.03 2721.5,1081.5C 2721.43,1079.97 2722.09,1078.97 2723.5,1078.5 Z"/></g>
<g><path style="opacity:0.753" fill="#0e653a" d="M 2367.5,1078.5 C 2367.26,1080.4 2366.26,1081.74 2364.5,1082.5C 2364.74,1080.6 2365.74,1079.26 2367.5,1078.5 Z"/></g>
<g><path style="opacity:0.247" fill="#136339" d="M 2721.5,1081.5 C 2721.26,1083.4 2720.26,1084.74 2718.5,1085.5C 2718.74,1083.6 2719.74,1082.26 2721.5,1081.5 Z"/></g>
<g><path style="opacity:0.753" fill="#0f643a" d="M 2364.5,1082.5 C 2364.57,1084.03 2363.91,1085.03 2362.5,1085.5C 2362.43,1083.97 2363.09,1082.97 2364.5,1082.5 Z"/></g>
<g><path style="opacity:0.753" fill="#0f643a" d="M 2361.5,1086.5 C 2361.57,1088.03 2360.91,1089.03 2359.5,1089.5C 2359.43,1087.97 2360.09,1086.97 2361.5,1086.5 Z"/></g>
<g><path style="opacity:0.153" fill="#116439" d="M 2718.5,1085.5 C 2717.57,1088.37 2715.9,1090.7 2713.5,1092.5C 2714.43,1089.63 2716.1,1087.3 2718.5,1085.5 Z"/></g>
<g><path style="opacity:0.153" fill="#126339" d="M 2713.5,1092.5 C 2713.26,1094.4 2712.26,1095.74 2710.5,1096.5C 2710.74,1094.6 2711.74,1093.26 2713.5,1092.5 Z"/></g>
<g><path style="opacity:0.722" fill="#0f643a" d="M 2359.5,1089.5 C 2356.65,1094.53 2353.32,1099.19 2349.5,1103.5C 2351.85,1098.12 2355.19,1093.45 2359.5,1089.5 Z"/></g>
<g><path style="opacity:0.153" fill="#126439" d="M 2710.5,1096.5 C 2710.57,1098.03 2709.91,1099.03 2708.5,1099.5C 2708.43,1097.97 2709.09,1096.97 2710.5,1096.5 Z"/></g>
<g><path style="opacity:0.153" fill="#106439" d="M 2708.5,1099.5 C 2708.5,1100.83 2707.83,1101.5 2706.5,1101.5C 2706.83,1100.5 2707.5,1099.83 2708.5,1099.5 Z"/></g>
<g><path style="opacity:0.918" fill="#0f643a" d="M 2349.5,1103.5 C 2349.57,1105.03 2348.91,1106.03 2347.5,1106.5C 2347.43,1104.97 2348.09,1103.97 2349.5,1103.5 Z"/></g>
<g><path style="opacity:0.153" fill="#106439" d="M 2705.5,1103.5 C 2705.5,1104.83 2704.83,1105.5 2703.5,1105.5C 2703.83,1104.5 2704.5,1103.83 2705.5,1103.5 Z"/></g>
<g><path style="opacity:0.722" fill="#0d653a" d="M 2346.5,1107.5 C 2346.57,1109.03 2345.91,1110.03 2344.5,1110.5C 2344.43,1108.97 2345.09,1107.97 2346.5,1107.5 Z"/></g>
<g><path style="opacity:0.153" fill="#126439" d="M 2702.5,1107.5 C 2702.57,1109.03 2701.91,1110.03 2700.5,1110.5C 2700.43,1108.97 2701.09,1107.97 2702.5,1107.5 Z"/></g>
<g><path style="opacity:0.722" fill="#0c653a" d="M 2344.5,1110.5 C 2344.26,1112.4 2343.26,1113.74 2341.5,1114.5C 2341.74,1112.6 2342.74,1111.26 2344.5,1110.5 Z"/></g>
<g><path style="opacity:0.722" fill="#0e653a" d="M 2698.5,1113.5 C 2698.17,1114.5 2697.5,1115.17 2696.5,1115.5C 2696.5,1114.17 2697.17,1113.5 2698.5,1113.5 Z"/></g>
<g><path style="opacity:0.722" fill="#0e653a" d="M 2695.5,1117.5 C 2695.17,1118.5 2694.5,1119.17 2693.5,1119.5C 2693.5,1118.17 2694.17,1117.5 2695.5,1117.5 Z"/></g>
<g><path style="opacity:0.525" fill="#10643a" d="M 2335.5,1122.5 C 2334.97,1124.23 2333.97,1125.56 2332.5,1126.5C 2332.55,1124.37 2333.55,1123.03 2335.5,1122.5 Z"/></g>
<g><path style="opacity:0.525" fill="#0c653a" d="M 2690.5,1124.5 C 2690.17,1125.5 2689.5,1126.17 2688.5,1126.5C 2688.5,1125.17 2689.17,1124.5 2690.5,1124.5 Z"/></g>
<g><path style="opacity:0.525" fill="#0f653a" d="M 2331.5,1128.5 C 2331.17,1129.5 2330.5,1130.17 2329.5,1130.5C 2329.5,1129.17 2330.17,1128.5 2331.5,1128.5 Z"/></g>
<g><path style="opacity:0.341" fill="#116439" d="M 2688.5,1126.5 C 2688.26,1128.4 2687.26,1129.74 2685.5,1130.5C 2685.74,1128.6 2686.74,1127.26 2688.5,1126.5 Z"/></g>
<g><path style="opacity:0.753" fill="#0f643a" d="M 2329.5,1130.5 C 2329.57,1132.03 2328.91,1133.03 2327.5,1133.5C 2327.43,1131.97 2328.09,1130.97 2329.5,1130.5 Z"/></g>
<g><path style="opacity:0.341" fill="#116439" d="M 2685.5,1130.5 C 2685.57,1132.03 2684.91,1133.03 2683.5,1133.5C 2683.43,1131.97 2684.09,1130.97 2685.5,1130.5 Z"/></g>
<g><path style="opacity:0.341" fill="#116439" d="M 2682.5,1134.5 C 2682.57,1136.03 2681.91,1137.03 2680.5,1137.5C 2680.43,1135.97 2681.09,1134.97 2682.5,1134.5 Z"/></g>
<g><path style="opacity:0.525" fill="#0f643a" d="M 2326.5,1134.5 C 2326.26,1136.4 2325.26,1137.74 2323.5,1138.5C 2323.74,1136.6 2324.74,1135.26 2326.5,1134.5 Z"/></g>
<g><path style="opacity:0.753" fill="#0f643a" d="M 2323.5,1138.5 C 2323.57,1140.03 2322.91,1141.03 2321.5,1141.5C 2321.43,1139.97 2322.09,1138.97 2323.5,1138.5 Z"/></g>
<g><path style="opacity:0.341" fill="#116439" d="M 2680.5,1137.5 C 2679.57,1140.37 2677.9,1142.7 2675.5,1144.5C 2676.43,1141.63 2678.1,1139.3 2680.5,1137.5 Z"/></g>
<g><path style="opacity:0.639" fill="#0e643a" d="M 2321.5,1141.5 C 2320.57,1144.37 2318.9,1146.7 2316.5,1148.5C 2317.43,1145.63 2319.1,1143.3 2321.5,1141.5 Z"/></g>
<g><path style="opacity:0.153" fill="#126439" d="M 2675.5,1144.5 C 2675.57,1146.03 2674.91,1147.03 2673.5,1147.5C 2673.43,1145.97 2674.09,1144.97 2675.5,1144.5 Z"/></g>
<g><path style="opacity:0.341" fill="#126339" d="M 2673.5,1147.5 C 2673.26,1149.4 2672.26,1150.74 2670.5,1151.5C 2670.74,1149.6 2671.74,1148.26 2673.5,1147.5 Z"/></g>
<g><path style="opacity:0.153" fill="#116439" d="M 2670.5,1151.5 C 2670.57,1153.03 2669.91,1154.03 2668.5,1154.5C 2668.43,1152.97 2669.09,1151.97 2670.5,1151.5 Z"/></g>
<g><path style="opacity:0.753" fill="#0f643a" d="M 2316.5,1148.5 C 2314.6,1152.73 2311.93,1156.4 2308.5,1159.5C 2310.4,1155.27 2313.07,1151.6 2316.5,1148.5 Z"/></g>
<g><path style="opacity:0.153" fill="#116439" d="M 2667.5,1155.5 C 2667.57,1157.03 2666.91,1158.03 2665.5,1158.5C 2665.43,1156.97 2666.09,1155.97 2667.5,1155.5 Z"/></g>
<g><path style="opacity:0.153" fill="#116439" d="M 2665.5,1158.5 C 2665.57,1160.03 2664.91,1161.03 2663.5,1161.5C 2663.43,1159.97 2664.09,1158.97 2665.5,1158.5 Z"/></g>
<g><path style="opacity:0.918" fill="#0f643a" d="M 2308.5,1159.5 C 2308.57,1161.03 2307.91,1162.03 2306.5,1162.5C 2306.43,1160.97 2307.09,1159.97 2308.5,1159.5 Z"/></g>
<g><path style="opacity:0.153" fill="#116439" d="M 2662.5,1162.5 C 2662.57,1164.03 2661.91,1165.03 2660.5,1165.5C 2660.43,1163.97 2661.09,1162.97 2662.5,1162.5 Z"/></g>
<g><path style="opacity:0.918" fill="#0e643a" d="M 2306.5,1162.5 C 2306.26,1164.4 2305.26,1165.74 2303.5,1166.5C 2303.74,1164.6 2304.74,1163.26 2306.5,1162.5 Z"/></g>
<g><path style="opacity:0.918" fill="#0f643a" d="M 2303.5,1166.5 C 2303.57,1168.03 2302.91,1169.03 2301.5,1169.5C 2301.43,1167.97 2302.09,1166.97 2303.5,1166.5 Z"/></g>
<g><path style="opacity:0.247" fill="#126339" d="M 2660.5,1165.5 C 2659.75,1168.36 2658.09,1170.36 2655.5,1171.5C 2656.7,1169.09 2658.37,1167.09 2660.5,1165.5 Z"/></g>
<g><path style="opacity:0.918" fill="#0f643a" d="M 2300.5,1170.5 C 2300.57,1172.03 2299.91,1173.03 2298.5,1173.5C 2298.43,1171.97 2299.09,1170.97 2300.5,1170.5 Z"/></g>
<g><path style="opacity:0.153" fill="#136339" d="M 2655.5,1172.5 C 2655.5,1174.5 2654.5,1175.5 2652.5,1175.5C 2653.17,1174.17 2654.17,1173.17 2655.5,1172.5 Z"/></g>
<g><path style="opacity:0.525" fill="#0f643a" d="M 2298.5,1173.5 C 2298.26,1175.4 2297.26,1176.74 2295.5,1177.5C 2295.74,1175.6 2296.74,1174.26 2298.5,1173.5 Z"/></g>
<g><path style="opacity:0.153" fill="#116439" d="M 2652.5,1176.5 C 2652.5,1177.83 2651.83,1178.5 2650.5,1178.5C 2650.83,1177.5 2651.5,1176.83 2652.5,1176.5 Z"/></g>
<g><path style="opacity:0.525" fill="#0e653a" d="M 2295.5,1177.5 C 2295.57,1179.03 2294.91,1180.03 2293.5,1180.5C 2293.43,1178.97 2294.09,1177.97 2295.5,1177.5 Z"/></g>
<g><path style="opacity:0.656" fill="#0d653a" d="M 2293.5,1180.5 C 2292.86,1182.79 2291.53,1184.46 2289.5,1185.5C 2290.12,1183.25 2291.46,1181.58 2293.5,1180.5 Z"/></g>
<g><path style="opacity:0.249" fill="#156339" d="M 2286.5,1190.5 C 2405.04,1191.83 2523.71,1191.83 2642.5,1190.5C 2642.39,1191.12 2642.06,1191.62 2641.5,1192C 2522.83,1192.83 2404.17,1192.67 2285.5,1191.5C 2285.62,1190.89 2285.96,1190.56 2286.5,1190.5 Z"/></g>
<g><path style="opacity:1" fill="#01673c" d="M 548.5,1388.5 C 549.822,1388.33 550.989,1388.66 552,1389.5C 621.974,1533.44 692.307,1676.77 763,1819.5C 763.684,1820.78 763.517,1821.95 762.5,1823C 735.5,1823.67 708.5,1823.67 681.5,1823C 667.044,1792.59 652.71,1762.09 638.5,1731.5C 579.5,1730.17 520.5,1730.17 461.5,1731.5C 447.311,1762.04 432.978,1792.54 418.5,1823C 391.161,1823.83 363.827,1823.67 336.5,1822.5C 407.199,1677.77 477.866,1533.1 548.5,1388.5 Z M 549.5,1542.5 C 552.7,1545.87 555.2,1549.87 557,1554.5C 574.492,1593.65 592.658,1632.48 611.5,1671C 571.163,1671.83 530.829,1671.67 490.5,1670.5C 510.162,1627.84 529.828,1585.18 549.5,1542.5 Z"/></g>
<g><path style="opacity:1" fill="#01673c" d="M 2459.5,1388.5 C 2460.5,1388.41 2461.33,1388.75 2462,1389.5C 2527.47,1523.76 2593.14,1657.1 2659,1789.5C 2663.11,1799.73 2667.78,1809.73 2673,1819.5C 2673.67,1820.5 2673.67,1821.5 2673,1822.5C 2646.24,1823.66 2619.41,1823.83 2592.5,1823C 2577.21,1792.91 2562.54,1762.41 2548.5,1731.5C 2489.5,1730.17 2430.5,1730.17 2371.5,1731.5C 2361.52,1752.26 2352.02,1773.26 2343,1794.5C 2338.31,1804.05 2333.48,1813.55 2328.5,1823C 2301.5,1823.5 2274.5,1823.67 2247.5,1823.5C 2248.07,1819.68 2249.24,1816.01 2251,1812.5C 2320.09,1671.31 2389.59,1529.97 2459.5,1388.5 Z M 2459.5,1542.5 C 2460.38,1542.37 2461.04,1542.7 2461.5,1543.5C 2481.21,1586.11 2501.21,1628.61 2521.5,1671C 2481.16,1671.83 2440.83,1671.67 2400.5,1670.5C 2420.16,1627.84 2439.83,1585.18 2459.5,1542.5 Z"/></g>
<g><path style="opacity:1" fill="#01673c" d="M 1924.5,1391.5 C 1925.38,1391.37 1926.04,1391.7 1926.5,1392.5C 1963.23,1481.58 1999.4,1570.58 2035,1659.5C 2070.07,1574.04 2104.57,1488.37 2138.5,1402.5C 2164.83,1402.5 2191.17,1402.5 2217.5,1402.5C 2158.94,1547.95 2100.11,1693.29 2041,1838.5C 2002.11,1746.05 1963.78,1653.39 1926,1560.5C 1886.44,1653.29 1846.6,1745.96 1806.5,1838.5C 1749.56,1697.4 1692.4,1557.07 1635,1417.5C 1633.19,1412.58 1631.69,1407.58 1630.5,1402.5C 1657.83,1402.5 1685.17,1402.5 1712.5,1402.5C 1747,1488.57 1781.5,1574.23 1816,1659.5C 1852.81,1570.82 1888.98,1481.48 1924.5,1391.5 Z"/></g>
<g><path style="opacity:1" fill="#01673c" d="M 3349.5,1396.5 C 3386.56,1394.31 3421.23,1401.64 3453.5,1418.5C 3462.52,1424.34 3471.19,1430.68 3479.5,1437.5C 3480.67,1464.49 3480.83,1491.49 3480,1518.5C 3458.09,1497.83 3433.59,1481.67 3406.5,1470C 3382.48,1460.03 3358.14,1459.03 3333.5,1467C 3306.45,1479.81 3297.95,1500.31 3308,1528.5C 3311.88,1532.71 3315.38,1537.21 3318.5,1542C 3336.45,1555.82 3356.12,1566.82 3377.5,1575C 3393.25,1581.68 3408.91,1587.68 3424.5,1593C 3489.24,1624.93 3513.08,1674.76 3496,1742.5C 3483.11,1776.73 3459.94,1801.23 3426.5,1816C 3417.81,1820.06 3408.81,1823.23 3399.5,1825.5C 3398.91,1825.29 3398.41,1824.96 3398,1824.5C 3390,1826.69 3381.84,1828.19 3373.5,1829C 3360.17,1829.67 3346.83,1829.67 3333.5,1829C 3294.33,1826.26 3258.67,1812.93 3226.5,1789C 3225.26,1787.85 3224.26,1786.51 3223.5,1785C 3223.5,1759.67 3223.5,1734.33 3223.5,1709C 3224,1708.5 3224.5,1708 3225,1707.5C 3252.2,1732.69 3283.7,1750.53 3319.5,1761C 3340.83,1765.67 3362.16,1765.67 3383.5,1761C 3400.57,1756.9 3414.07,1747.73 3424,1733.5C 3433.77,1711.08 3429.27,1691.91 3410.5,1676C 3399.84,1668.52 3388.18,1661.85 3375.5,1656C 3371.47,1654.57 3367.64,1652.73 3364,1650.5C 3335.31,1640.08 3307.48,1626.58 3280.5,1610C 3232.15,1574.26 3217.98,1527.76 3238,1470.5C 3244.97,1452.86 3255.81,1438.02 3270.5,1426C 3293.75,1409.07 3320.09,1399.23 3349.5,1396.5 Z"/></g>
<g><path style="opacity:1" fill="#01673c" d="M 923.5,1402.5 C 951.167,1402.5 978.833,1402.5 1006.5,1402.5C 1006.5,1542.83 1006.5,1683.17 1006.5,1823.5C 978.926,1823.83 951.426,1823.5 924,1822.5C 923.5,1682.5 923.333,1542.5 923.5,1402.5 Z"/></g>
<g><path style="opacity:1" fill="#01673c" d="M 1219.5,1402.5 C 1267.5,1402.33 1315.5,1402.5 1363.5,1403C 1423.43,1407.52 1465.76,1437.52 1490.5,1493C 1503.92,1545.06 1490.92,1589.06 1451.5,1625C 1439.19,1634.62 1425.86,1642.62 1411.5,1649C 1454.68,1706.1 1497.51,1762.93 1540,1819.5C 1540.32,1820.91 1539.98,1822.24 1539,1823.5C 1511,1823.5 1483,1823.5 1455,1823.5C 1413.71,1769.09 1372.55,1714.59 1331.5,1660C 1318.5,1659.5 1305.5,1659.33 1292.5,1659.5C 1292.67,1713.83 1292.5,1768.17 1292,1822.5C 1268,1822.5 1244,1822.5 1220,1822.5C 1219.5,1682.5 1219.33,1542.5 1219.5,1402.5 Z M 1292.5,1467.5 C 1315.17,1467.33 1337.84,1467.5 1360.5,1468C 1395.17,1474.67 1413.5,1495.67 1415.5,1531C 1414.89,1554.56 1404.89,1572.89 1385.5,1586C 1377.93,1589.86 1369.93,1592.52 1361.5,1594C 1338.5,1594.5 1315.5,1594.67 1292.5,1594.5C 1292.5,1552.17 1292.5,1509.83 1292.5,1467.5 Z"/></g>
<g><path style="opacity:1" fill="#01673c" d="M 2725.5,1402.5 C 2754.17,1402.33 2782.84,1402.5 2811.5,1403C 2848.41,1455.89 2885.24,1508.72 2922,1561.5C 2957.06,1508.52 2992.23,1455.69 3027.5,1403C 3056.84,1402.17 3086.17,1402.33 3115.5,1403.5C 3063.51,1480.14 3011.01,1556.48 2958,1632.5C 2957.67,1695.5 2957.33,1758.5 2957,1821.5C 2956.33,1822.17 2955.67,1822.83 2955,1823.5C 2930.57,1822.97 2906.07,1822.64 2881.5,1822.5C 2880.67,1759.17 2880.17,1695.84 2880,1632.5C 2828.67,1557.17 2777.33,1481.83 2726,1406.5C 2725.51,1405.21 2725.34,1403.87 2725.5,1402.5 Z"/></g>
</svg>
